M48
;Layer_Color=9474304
;FILE_FORMAT=4:4
METRIC,LZ
;TYPE=PLATED
T1F00S00C0.2500
T2F00S00C1.0000
;TYPE=NON_PLATED
T3F00S00C2.0000
%
T01
X0082692Y0070358
X0086819
X0090946
X0093115Y0078486
X0084009Y0075736
X0078081Y0075236
X0075664Y0074319
X0077329Y0069304
X00710041Y00695397
X0067642Y0069291
X00635859Y00725132
Y00740372
Y00755612
X0063603Y0077089
X00670125Y00777036
X00661437Y0078643
X00657327Y00793217
X00705557Y00786686
X0071083Y00780851
X00710841Y00773327
X0069747Y0075236
X0046633Y0078486
X0045823Y0086106
X0055231Y0089116
X00641655Y00890264
Y0088147
Y00872676
X00674065
Y0088147
Y00890264
X00691229Y00890137
X00700691
X00684397Y00881031
Y00871569
X00728251Y00857538
X00740951
X00753651
Y00823182
X00740951
X00728251
X0070664Y0082653
X0063603Y00828891
Y0084328
X00621623Y00858022
X00618839Y00939392
X00628301
X0074041Y0092456
Y0091186
X0078562Y0091708
X0078613Y0086717
X0078081Y0081736
X0083959Y00812166
X0084009Y0082804
Y0084455
X0082183Y0090716
X0091591Y0086106
T02
X0090131Y00758051
X0092671
X01Y0076
Y0072
X0061849Y007239
X0059309
Y006985
X0056769
X0054229
X0051689
X0049149
Y007239
X0051689
X0054229
X0056769
X0061849Y006985
X0039Y0072
Y0076
Y008
Y0084
Y0088
Y0092
X01
Y0088
Y0084
Y008
T03
X0103Y0072
Y0076
X0036
Y0072
Y008
Y0084
Y0088
Y0092
X0103
Y0088
Y0084
Y008
M30
