G04*
G04 #@! TF.GenerationSoftware,Altium Limited,Altium Designer,22.3.1 (43)*
G04*
G04 Layer_Physical_Order=1*
G04 Layer_Color=255*
%FSLAX44Y44*%
%MOMM*%
G71*
G04*
G04 #@! TF.SameCoordinates,C52AF181-6C1B-4B2A-911A-4B769AFB4D18*
G04*
G04*
G04 #@! TF.FilePolarity,Positive*
G04*
G01*
G75*
%ADD10C,0.3000*%
%ADD13C,0.2540*%
%ADD14C,0.2000*%
%ADD15C,0.3500*%
%ADD16R,0.9500X1.0000*%
%ADD17R,0.8000X0.8000*%
%ADD18R,1.5000X1.0000*%
%ADD19O,1.8000X0.3000*%
%ADD20O,0.3000X1.8000*%
%ADD21R,1.1000X1.9000*%
%ADD22R,0.6250X0.4000*%
%ADD23R,1.5500X0.6000*%
%ADD24R,1.8000X1.1500*%
%ADD25R,0.9000X1.0000*%
%ADD26R,1.0000X0.9500*%
%ADD27R,1.0500X1.4000*%
%ADD28R,1.0000X0.9000*%
%ADD29R,1.4000X1.0500*%
%ADD30R,2.1500X2.3000*%
%ADD31R,0.9500X0.9500*%
%ADD32R,0.6500X0.8500*%
%ADD55C,0.4000*%
%ADD56C,0.1520*%
%ADD57C,1.7000*%
%ADD58R,1.7000X1.7000*%
%ADD59R,1.7000X1.7000*%
%ADD60C,0.6000*%
G36*
X686000Y935990D02*
X693040D01*
Y933450D01*
X686000D01*
Y927206D01*
X686000Y927180D01*
X686000D01*
X686420Y926110D01*
X686420Y926110D01*
Y919590D01*
X695960D01*
X705500D01*
Y926110D01*
X706176Y927100D01*
X719871D01*
X721026Y925946D01*
X721026Y925946D01*
X721685Y925505D01*
X723620Y923570D01*
Y922730D01*
X729285D01*
Y920190D01*
X723620D01*
Y919460D01*
X722610D01*
X716220Y913070D01*
X705500D01*
Y917050D01*
X695960D01*
X686420D01*
Y913070D01*
X684470D01*
X674880Y903480D01*
X633610D01*
Y907210D01*
X623570D01*
Y909750D01*
X633610D01*
Y913520D01*
X636324Y916234D01*
Y935955D01*
X640089Y939720D01*
X644425D01*
X644570Y938510D01*
X644570Y938450D01*
Y925740D01*
X657860D01*
X671150D01*
Y938450D01*
X671150Y938510D01*
X671295Y939720D01*
X686000D01*
Y935990D01*
D02*
G37*
G36*
X760730Y908050D02*
Y899080D01*
X755270D01*
Y891540D01*
Y884000D01*
X760730D01*
Y882570D01*
X755270D01*
Y875030D01*
Y867490D01*
X760730D01*
Y860056D01*
X755136Y854462D01*
X726688D01*
X715563Y865587D01*
X716049Y866760D01*
X720370D01*
Y875030D01*
X712580D01*
Y876300D01*
X711310D01*
Y885840D01*
X706026D01*
X705500Y887110D01*
X718199Y899809D01*
Y904889D01*
X722447Y909137D01*
X723620Y908651D01*
Y903920D01*
X728015D01*
Y908460D01*
X730555D01*
Y903920D01*
X734950D01*
Y907186D01*
X745870D01*
Y903920D01*
X750265D01*
Y908460D01*
X751535D01*
Y909730D01*
X757200D01*
Y909914D01*
X758470Y910310D01*
X760730Y908050D01*
D02*
G37*
G36*
X723057Y916230D02*
X729285D01*
Y913690D01*
X723620D01*
Y912850D01*
X716280Y905510D01*
Y901005D01*
X701115Y885840D01*
X695850D01*
Y876300D01*
X694580D01*
Y875030D01*
X686790D01*
Y867410D01*
X672412D01*
X671150Y867430D01*
X671150Y868680D01*
Y880200D01*
X657860D01*
X644570D01*
Y868680D01*
X644570Y867430D01*
X643308Y867410D01*
X637540D01*
X635000Y869950D01*
Y896620D01*
X638810Y900430D01*
X678180D01*
X685150Y907400D01*
X686420Y906874D01*
Y901590D01*
X695960D01*
X705500D01*
Y908050D01*
X713877D01*
X722350Y916523D01*
X723057Y916230D01*
D02*
G37*
G36*
X865180Y893770D02*
Y868600D01*
X861950D01*
Y861060D01*
Y853520D01*
X866060D01*
X868680Y850900D01*
X932180D01*
X960120Y822960D01*
Y698500D01*
X948690Y687070D01*
X789940D01*
X773350Y703660D01*
X772080D01*
Y707770D01*
X764540D01*
Y710310D01*
X772080D01*
Y713790D01*
X777290D01*
X782320Y718820D01*
Y739140D01*
X784860Y741680D01*
X806450D01*
X810590Y745820D01*
Y749820D01*
X814070D01*
Y757360D01*
X816610D01*
Y749820D01*
X820090D01*
Y705180D01*
X822396Y702874D01*
Y702680D01*
X823085Y701017D01*
X824357Y699745D01*
X826020Y699056D01*
X826214D01*
X828040Y697230D01*
X939800D01*
X942340Y699770D01*
Y727710D01*
X939800Y730250D01*
X930910D01*
X916940Y744220D01*
Y747011D01*
X925440D01*
Y758051D01*
Y769091D01*
X916940D01*
Y773430D01*
X919480Y775970D01*
X934720D01*
X937260Y778510D01*
Y788670D01*
X933450Y792480D01*
X861060D01*
X847090Y806450D01*
Y847090D01*
X840740Y853440D01*
X821690D01*
X820340Y852090D01*
X816610D01*
Y844550D01*
Y837010D01*
X820090D01*
Y835580D01*
X816610D01*
Y828040D01*
X815340D01*
Y826770D01*
X806780D01*
D01*
X785757D01*
X784324Y825337D01*
X784227Y825273D01*
X784163Y825176D01*
X783050Y824063D01*
Y822704D01*
X782550Y822184D01*
X782083Y821883D01*
X781917Y821798D01*
X781710Y821884D01*
X779910D01*
X778247Y821195D01*
X776975Y819923D01*
X776286Y818260D01*
Y816460D01*
X776975Y814797D01*
X778247Y813525D01*
X779910Y812836D01*
X781710D01*
X781994Y812954D01*
X783050Y812248D01*
Y766540D01*
X777240Y760730D01*
X770890D01*
X745490Y786130D01*
X710081D01*
Y787586D01*
X709392Y789249D01*
X708120Y790521D01*
X706457Y791210D01*
X704657D01*
X702995Y790521D01*
X701722Y789249D01*
X701033Y787586D01*
Y785786D01*
X701722Y784123D01*
X702995Y782851D01*
X703217Y782758D01*
Y779176D01*
X703228Y779121D01*
Y767697D01*
X703406Y766806D01*
X703911Y766050D01*
X720090Y749871D01*
Y741680D01*
X719380Y740970D01*
X704996D01*
X704101Y740075D01*
X703216Y740666D01*
X702910Y740726D01*
Y729360D01*
Y717993D01*
X703030Y718017D01*
X704188Y717535D01*
X704300Y717475D01*
Y715450D01*
X702320D01*
Y708660D01*
X701050D01*
Y707390D01*
X695260D01*
Y704540D01*
X692710D01*
Y707640D01*
X685170D01*
X677630D01*
Y704540D01*
X674290D01*
Y707770D01*
X666750D01*
X659210D01*
Y703154D01*
X659130Y703074D01*
Y687070D01*
X623190D01*
X623034Y687475D01*
X622972Y688340D01*
X625269Y689666D01*
X627324Y691721D01*
X628778Y694239D01*
X629530Y697047D01*
Y697230D01*
X618490D01*
Y698500D01*
X617220D01*
Y709540D01*
X617037D01*
X614229Y708788D01*
X611711Y707334D01*
X609656Y705279D01*
X608330Y702982D01*
X607465Y703044D01*
X607060Y703200D01*
Y707390D01*
X610870Y711200D01*
X646430D01*
X652273Y717043D01*
X653319Y717592D01*
Y717592D01*
X653319Y717592D01*
X659339D01*
Y725132D01*
X660609D01*
Y726402D01*
X667899D01*
Y732672D01*
X667899D01*
Y732832D01*
X667899D01*
Y739102D01*
X660609D01*
Y741642D01*
X667899D01*
Y747912D01*
X667899D01*
Y748072D01*
X667899D01*
Y754342D01*
X660609D01*
Y756882D01*
X667899D01*
Y757922D01*
X669072Y758408D01*
X670721Y756759D01*
Y744111D01*
X672763Y742069D01*
X691725D01*
X695032Y745375D01*
Y746217D01*
X695194Y747031D01*
X696342Y747931D01*
X696570Y747836D01*
X698370D01*
X700033Y748525D01*
X701305Y749797D01*
X701994Y751460D01*
Y753260D01*
X701305Y754923D01*
X700033Y756195D01*
X698370Y756884D01*
X696570D01*
X696088Y756684D01*
X695032Y757390D01*
Y823753D01*
X692014Y826770D01*
X669290D01*
X664210Y821690D01*
X632460D01*
X629920Y824230D01*
Y830580D01*
X634373Y835033D01*
X654693D01*
X655400Y835740D01*
X659510D01*
Y843280D01*
X660780D01*
Y844550D01*
X668070D01*
Y849619D01*
X697074D01*
Y831824D01*
X698279Y830619D01*
X698727Y829947D01*
X699399Y829499D01*
X699991Y828906D01*
X700808D01*
X701311Y828806D01*
X701999Y827928D01*
X702166Y827551D01*
X702116Y827430D01*
Y825630D01*
X702805Y823967D01*
X704077Y822695D01*
X705740Y822006D01*
X707540D01*
X709203Y822695D01*
X710475Y823967D01*
X711164Y825630D01*
Y827430D01*
X710990Y827850D01*
X711695Y828906D01*
X779376D01*
X781050Y830580D01*
Y849630D01*
X783590Y852170D01*
X793750D01*
X802965Y861385D01*
X813125D01*
X819150Y867410D01*
X836930D01*
X843280Y873760D01*
X857549D01*
X859274Y875485D01*
Y887270D01*
X859590D01*
Y891540D01*
X849300D01*
Y894080D01*
X859590D01*
Y895910D01*
X863040D01*
X865180Y893770D01*
D02*
G37*
%LPC*%
G36*
X671150Y923200D02*
X659130D01*
Y910430D01*
X671150D01*
Y923200D01*
D02*
G37*
G36*
X656590D02*
X644570D01*
Y910430D01*
X656590D01*
Y923200D01*
D02*
G37*
G36*
X757200Y907190D02*
X752805D01*
Y903920D01*
X757200D01*
Y907190D01*
D02*
G37*
G36*
X752730Y899080D02*
X746710D01*
Y892810D01*
X752730D01*
Y899080D01*
D02*
G37*
G36*
Y890270D02*
X746710D01*
Y884000D01*
X752730D01*
Y890270D01*
D02*
G37*
G36*
X720370Y885840D02*
X713850D01*
Y877570D01*
X720370D01*
Y885840D01*
D02*
G37*
G36*
X752730Y882570D02*
X746960D01*
Y876300D01*
X752730D01*
Y882570D01*
D02*
G37*
G36*
Y873760D02*
X746960D01*
Y867490D01*
X752730D01*
Y873760D01*
D02*
G37*
G36*
X705500Y899050D02*
X697230D01*
Y892530D01*
X705500D01*
Y899050D01*
D02*
G37*
G36*
X694690D02*
X686420D01*
Y892530D01*
X694690D01*
Y899050D01*
D02*
G37*
G36*
X671150Y895510D02*
X659130D01*
Y882740D01*
X671150D01*
Y895510D01*
D02*
G37*
G36*
X656590D02*
X644570D01*
Y882740D01*
X656590D01*
Y895510D01*
D02*
G37*
G36*
X693310Y885840D02*
X686790D01*
Y877570D01*
X693310D01*
Y885840D01*
D02*
G37*
G36*
X859410Y868600D02*
X853640D01*
Y862330D01*
X859410D01*
Y868600D01*
D02*
G37*
G36*
Y859790D02*
X853640D01*
Y853520D01*
X859410D01*
Y859790D01*
D02*
G37*
G36*
X814070Y852090D02*
X808050D01*
Y845820D01*
X814070D01*
Y852090D01*
D02*
G37*
G36*
Y843280D02*
X808050D01*
Y837010D01*
X814070D01*
Y843280D01*
D02*
G37*
G36*
X668070Y842010D02*
X662050D01*
Y835740D01*
X668070D01*
Y842010D01*
D02*
G37*
G36*
X814070Y835580D02*
X808050D01*
Y829310D01*
X814070D01*
Y835580D01*
D02*
G37*
G36*
X937750Y769091D02*
X927980D01*
Y759321D01*
X937750D01*
Y769091D01*
D02*
G37*
G36*
Y756781D02*
X927980D01*
Y747011D01*
X937750D01*
Y756781D01*
D02*
G37*
G36*
X700370Y740726D02*
X700064Y740666D01*
X698727Y739773D01*
X697834Y738436D01*
X697521Y736860D01*
Y730630D01*
X700370D01*
Y740726D01*
D02*
G37*
G36*
Y728090D02*
X697521D01*
Y721860D01*
X697834Y720284D01*
X698727Y718947D01*
X700064Y718054D01*
X700370Y717993D01*
Y728090D01*
D02*
G37*
G36*
X667899Y723862D02*
X661879D01*
Y717592D01*
X667899D01*
Y723862D01*
D02*
G37*
G36*
X674290Y716080D02*
X668020D01*
Y710310D01*
X674290D01*
Y716080D01*
D02*
G37*
G36*
X665480D02*
X659210D01*
Y710310D01*
X665480D01*
Y716080D01*
D02*
G37*
G36*
X692710Y716200D02*
X686440D01*
Y710180D01*
X692710D01*
Y716200D01*
D02*
G37*
G36*
X683900D02*
X677630D01*
Y710180D01*
X683900D01*
Y716200D01*
D02*
G37*
G36*
X699780Y715450D02*
X695260D01*
Y709930D01*
X699780D01*
Y715450D01*
D02*
G37*
G36*
X619943Y709540D02*
X619760D01*
Y699770D01*
X629530D01*
Y699953D01*
X628778Y702761D01*
X627324Y705279D01*
X625269Y707334D01*
X622751Y708788D01*
X619943Y709540D01*
D02*
G37*
%LPD*%
D10*
X390000Y800000D02*
X441480D01*
X441580Y800100D01*
Y784860D02*
Y800100D01*
D13*
X815340Y828040D02*
Y844550D01*
Y827790D02*
Y828040D01*
X806545Y824939D02*
Y827950D01*
X814212Y826662D02*
X815340Y827790D01*
X804054Y822448D02*
X806545Y824939D01*
X794728Y822448D02*
X804054D01*
X794640Y822360D02*
X794728Y822448D01*
X474973Y691434D02*
X484416Y681990D01*
X467360Y800100D02*
X474973Y792487D01*
X457580Y800100D02*
X467360D01*
X474973Y691434D02*
Y792487D01*
X484416Y681990D02*
X965521D01*
X815340Y704850D02*
X828777Y691413D01*
X942873D02*
X949960Y698500D01*
X828777Y691413D02*
X942873D01*
X815340Y742950D02*
Y757360D01*
Y704850D02*
Y742950D01*
X941070Y772411D02*
X949960Y763521D01*
Y698500D02*
Y763521D01*
X977900Y694369D02*
Y777900D01*
X965521Y681990D02*
X977900Y694369D01*
X731900Y792480D02*
X759840Y820420D01*
X794552Y757448D02*
X794640Y757360D01*
X748790Y708660D02*
X764160D01*
X748215D02*
X748790D01*
X699763Y792480D02*
Y821697D01*
Y762007D02*
Y792480D01*
X703566Y748016D02*
Y758204D01*
X699763Y762007D02*
X703566Y758204D01*
X748790Y693040D02*
X764540D01*
X660609Y740372D02*
Y755612D01*
Y725132D02*
Y740372D01*
X666750Y709040D02*
X666954D01*
X670184Y712270D02*
Y718444D01*
X666954Y709040D02*
X670184Y712270D01*
Y718444D02*
X674370Y722630D01*
X977900Y777900D02*
X1000000Y800000D01*
X721124Y906030D02*
X723555Y908460D01*
X729285D01*
X815340Y844550D02*
Y854710D01*
X819150Y858520D01*
X842010D01*
X904240Y796290D01*
X935990D01*
X941070Y772411D02*
Y791210D01*
X935990Y796290D02*
X941070Y791210D01*
X926710Y758051D02*
X941070Y772411D01*
X662521Y828891D02*
X664210Y830580D01*
X636030Y828891D02*
X662521D01*
X553340Y907160D02*
X602478Y858022D01*
X621623D01*
X543560Y907160D02*
X553340D01*
X660780Y770890D02*
X663324Y768346D01*
X660609Y755612D02*
X663043Y753178D01*
X759840Y820420D02*
X774700D01*
X798830Y844550D01*
X815340D01*
X690880Y830580D02*
X699763Y821697D01*
X664210Y830580D02*
X690880D01*
X660780Y834010D02*
X664210Y830580D01*
X660780Y834010D02*
Y843280D01*
X516032Y905510D02*
X524840D01*
X513419Y902897D02*
X516032Y905510D01*
X513419Y861101D02*
Y902897D01*
X849300Y892810D02*
X858520D01*
X860680Y890650D01*
Y861060D02*
Y890650D01*
X849300Y892810D02*
X850570Y891540D01*
X541910Y905510D02*
X543560Y907160D01*
X541910Y892810D02*
X543560Y891160D01*
X781430Y709040D02*
X815340Y742950D01*
X699763Y792480D02*
X731900D01*
X764540Y709040D02*
X781430D01*
X693420Y737870D02*
X703566Y748016D01*
X693040Y921240D02*
X695960Y918320D01*
X693040Y921240D02*
Y934720D01*
X695960Y918320D02*
X710040D01*
X713180Y921460D02*
X729285D01*
X710040Y918320D02*
X713180Y921460D01*
X709040Y934720D02*
X716280D01*
X723040Y927960D02*
X729285D01*
X716280Y934720D02*
X723040Y927960D01*
X762000Y925830D02*
X769620D01*
X757630Y921460D02*
X762000Y925830D01*
X751535Y921460D02*
X757630D01*
X761440Y914960D02*
X770000Y906400D01*
Y891540D02*
Y906400D01*
X751535Y914960D02*
X761440D01*
X785750Y891540D02*
X786130Y891920D01*
X770000Y891540D02*
X785750D01*
X770000Y875030D02*
Y891540D01*
X754000D02*
Y899540D01*
X751535Y902005D02*
X754000Y899540D01*
X751535Y902005D02*
Y908460D01*
X727710Y876300D02*
X731520D01*
X712580D02*
X727710D01*
X729285Y877875D02*
Y908460D01*
X727710Y876300D02*
X729285Y877875D01*
X731520Y876300D02*
X732790Y875030D01*
X754000D01*
Y891540D01*
X695960Y900320D02*
X708550D01*
X723190Y914960D01*
X729285D01*
X737160D02*
X740410Y918210D01*
X729285Y914960D02*
X737160D01*
X794640Y757360D02*
X815340D01*
X674370Y725132D02*
X683164D01*
X660609D02*
X674370D01*
Y722630D02*
Y725132D01*
X683164D02*
X686627Y721669D01*
X701325D02*
X701640Y721984D01*
X686627Y721669D02*
X701325D01*
X701640Y721984D02*
Y729360D01*
X688340Y843280D02*
X692960Y847900D01*
X701640Y840360D02*
Y847688D01*
X701428Y847900D02*
X701640Y847688D01*
X692960Y847900D02*
X701428D01*
X660780Y843280D02*
X688340D01*
X794640Y812360D02*
X815646D01*
X815840Y812166D01*
X761640Y711940D02*
X764540Y709040D01*
X761640Y711940D02*
Y729360D01*
X764160Y708660D02*
X764540Y709040D01*
X685170Y708910D02*
X700800D01*
X701050Y708660D01*
X685040Y709040D02*
X685170Y708910D01*
X669290Y709040D02*
X685040D01*
X670560Y737870D02*
X693420D01*
X668058Y740372D02*
X670560Y737870D01*
X660609Y740372D02*
X668058D01*
X669499Y747360D02*
X683640D01*
X663043Y753178D02*
X669009D01*
X663324Y768346D02*
X669294D01*
X670280Y767360D01*
X682370D01*
X780810Y817360D02*
X794640D01*
X706640Y826530D02*
Y840360D01*
X683640Y752360D02*
X697470D01*
X780810D02*
X794640D01*
X756640Y729360D02*
Y743190D01*
D14*
X780865Y855795D02*
X792530D01*
X801605Y864870D01*
X811530D01*
X776640Y851570D02*
X780865Y855795D01*
X778985Y860672D02*
X789552D01*
X771640Y853327D02*
X778985Y860672D01*
X771640Y840360D02*
Y853327D01*
X789552Y860672D02*
X796026Y867146D01*
X776640Y840360D02*
Y851570D01*
X796026Y867146D02*
Y888529D01*
X814580Y907083D01*
Y923290D01*
X901310Y758051D02*
X901631Y758372D01*
Y769551D01*
X906400Y774320D01*
Y784860D01*
X847344Y770815D02*
X877440Y740719D01*
Y720090D02*
Y740719D01*
X849277Y775482D02*
X883079Y741680D01*
X918710Y720090D02*
Y732290D01*
X883079Y741680D02*
X909320D01*
X918710Y732290D01*
X873490Y758051D02*
X901310D01*
X851263Y780277D02*
X873490Y758051D01*
X836170Y720090D02*
Y737110D01*
X847090Y748030D01*
Y759460D01*
X810273Y766198D02*
X840352D01*
X847090Y759460D01*
X794640Y762360D02*
X806435D01*
X810273Y766198D01*
X806507Y767551D02*
X809770Y770815D01*
X794831Y767551D02*
X806507D01*
X809770Y770815D02*
X847344D01*
X806363Y772551D02*
X809294Y775482D01*
X807957Y780277D02*
X851263D01*
X805231Y777551D02*
X807957Y780277D01*
X809294Y775482D02*
X849277D01*
X794831Y777551D02*
X805231D01*
X794640Y777360D02*
X794831Y777551D01*
Y772551D02*
X806363D01*
X794640Y772360D02*
X794831Y772551D01*
X794640Y767360D02*
X794831Y767551D01*
X934710Y703580D02*
Y720090D01*
X893440Y703580D02*
Y720090D01*
X852170Y703580D02*
Y720090D01*
X811530Y864870D02*
X814580Y867920D01*
Y875030D01*
X524840Y880110D02*
X534670D01*
X537232Y877548D02*
X541042D01*
X543560Y875030D01*
X534670Y880110D02*
X537232Y877548D01*
X524840Y918210D02*
X534670D01*
X537232Y920772D02*
X541042D01*
X543560Y923290D01*
X534670Y918210D02*
X537232Y920772D01*
X839470Y918210D02*
X849300D01*
X833098Y920772D02*
X836908D01*
X830580Y923290D02*
X833098Y920772D01*
X836908D02*
X839470Y918210D01*
X836908Y877548D02*
X839470Y880110D01*
X830580Y875030D02*
X833098Y877548D01*
X836908D01*
X839470Y880110D02*
X849300D01*
X892810Y918210D02*
X903300D01*
X891160Y916560D02*
X892810Y918210D01*
X891160Y861060D02*
Y916560D01*
X876680Y861060D02*
X891160D01*
X482980D02*
X497460D01*
X482980D02*
Y878460D01*
X481330Y880110D02*
X482980Y878460D01*
X470840Y880110D02*
X481330D01*
D15*
X404150Y818225D02*
X419759Y833834D01*
X401872Y823725D02*
X414259Y836113D01*
X346320Y818225D02*
X404150D01*
X348598Y823725D02*
X401872D01*
X334879Y829666D02*
X346320Y818225D01*
X340379Y831944D02*
X348598Y823725D01*
X334879Y829666D02*
Y850661D01*
X340379Y831944D02*
Y848383D01*
X334879Y850661D02*
X347230Y863012D01*
X340379Y848383D02*
X349508Y857513D01*
X372487D01*
X347230Y863012D02*
X373013D01*
X390000Y880000D01*
X372487Y857513D02*
X390000Y840000D01*
X414259Y836113D02*
Y894477D01*
X419759Y833834D02*
Y892199D01*
X414259Y894477D02*
X421788Y902007D01*
X419759Y892199D02*
X424067Y896507D01*
X955394Y870708D02*
X968589Y857513D01*
X982487D02*
X1000000Y840000D01*
X960894Y872986D02*
X970867Y863012D01*
X983013D02*
X1000000Y880000D01*
X970867Y863012D02*
X983013D01*
X968589Y857513D02*
X982487D01*
X955394Y870708D02*
Y891798D01*
X950685Y896507D02*
X955394Y891798D01*
X952963Y902007D02*
X960894Y894076D01*
Y872986D02*
Y894076D01*
X942003Y902007D02*
X952963D01*
X942197Y896507D02*
X950685D01*
X930350Y884660D02*
X942197Y896507D01*
X930350Y913660D02*
X942003Y902007D01*
X424067Y896507D02*
X431944D01*
X432136Y902007D02*
X443790Y913660D01*
X421788Y902007D02*
X432136D01*
X431944Y896507D02*
X443790Y884660D01*
X447040D01*
X443790Y913660D02*
X447040D01*
X451326Y909374D02*
X457746D01*
X447040Y913660D02*
X451326Y909374D01*
X461262Y905858D02*
X470492D01*
X457746Y909374D02*
X461262Y905858D01*
X470492D02*
X470840Y905510D01*
X451326Y888946D02*
X457746D01*
X447040Y884660D02*
X451326Y888946D01*
X461262Y892462D02*
X470492D01*
X457746Y888946D02*
X461262Y892462D01*
X470492D02*
X470840Y892810D01*
X916394Y888946D02*
X922814D01*
X927100Y884660D01*
X903648Y892462D02*
X912878D01*
X916394Y888946D01*
X903300Y892810D02*
X903648Y892462D01*
X903300Y905510D02*
X903648Y905858D01*
X912878D02*
X916394Y909374D01*
X903648Y905858D02*
X912878D01*
X922814Y909374D02*
X927100Y913660D01*
X916394Y909374D02*
X922814D01*
D16*
X732790Y693040D02*
D03*
X748790D02*
D03*
X770000Y891540D02*
D03*
X754000D02*
D03*
X644780Y843280D02*
D03*
X660780D02*
D03*
X831340Y828040D02*
D03*
X815340D02*
D03*
X831340Y757360D02*
D03*
X815340D02*
D03*
X644609Y755612D02*
D03*
X660609D02*
D03*
X644609Y725132D02*
D03*
X660609D02*
D03*
X644609Y740372D02*
D03*
X660609D02*
D03*
X831340Y844550D02*
D03*
X815340D02*
D03*
D17*
X852170Y703580D02*
D03*
X835670D02*
D03*
X893440D02*
D03*
X876940D02*
D03*
X934710D02*
D03*
X918210D02*
D03*
D18*
X623570Y908480D02*
D03*
Y930480D02*
D03*
D19*
X683640Y747360D02*
D03*
Y752360D02*
D03*
Y757360D02*
D03*
Y762360D02*
D03*
Y767360D02*
D03*
Y772360D02*
D03*
Y777360D02*
D03*
Y782360D02*
D03*
Y787360D02*
D03*
Y792360D02*
D03*
Y797360D02*
D03*
Y802360D02*
D03*
Y807360D02*
D03*
Y812360D02*
D03*
Y817360D02*
D03*
Y822360D02*
D03*
X794640D02*
D03*
Y817360D02*
D03*
Y812360D02*
D03*
Y807360D02*
D03*
Y802360D02*
D03*
Y797360D02*
D03*
Y792360D02*
D03*
Y787360D02*
D03*
Y782360D02*
D03*
Y777360D02*
D03*
Y772360D02*
D03*
Y767360D02*
D03*
Y762360D02*
D03*
Y757360D02*
D03*
Y752360D02*
D03*
Y747360D02*
D03*
D20*
X701640Y840360D02*
D03*
X706640D02*
D03*
X711640D02*
D03*
X716640D02*
D03*
X721640D02*
D03*
X726640D02*
D03*
X731640D02*
D03*
X736640D02*
D03*
X741640D02*
D03*
X746640D02*
D03*
X751640D02*
D03*
X756640D02*
D03*
X761640D02*
D03*
X766640D02*
D03*
X771640D02*
D03*
X776640D02*
D03*
Y729360D02*
D03*
X771640D02*
D03*
X766640D02*
D03*
X761640D02*
D03*
X756640D02*
D03*
X751640D02*
D03*
X746640D02*
D03*
X741640D02*
D03*
X736640D02*
D03*
X731640D02*
D03*
X726640D02*
D03*
X721640D02*
D03*
X716640D02*
D03*
X711640D02*
D03*
X706640D02*
D03*
X701640D02*
D03*
D21*
X740410Y918210D02*
D03*
D22*
X729285Y927960D02*
D03*
Y921460D02*
D03*
Y914960D02*
D03*
Y908460D02*
D03*
X751535Y927960D02*
D03*
Y921460D02*
D03*
Y914960D02*
D03*
Y908460D02*
D03*
D23*
X903300Y880110D02*
D03*
Y892810D02*
D03*
Y905510D02*
D03*
Y918210D02*
D03*
X849300Y880110D02*
D03*
Y892810D02*
D03*
Y905510D02*
D03*
Y918210D02*
D03*
X470840D02*
D03*
Y905510D02*
D03*
Y892810D02*
D03*
Y880110D02*
D03*
X524840Y918210D02*
D03*
Y905510D02*
D03*
Y892810D02*
D03*
Y880110D02*
D03*
D24*
X927100Y913660D02*
D03*
Y884660D02*
D03*
X447040D02*
D03*
Y913660D02*
D03*
D25*
X860680Y861060D02*
D03*
X876680D02*
D03*
X513460D02*
D03*
X497460D02*
D03*
X457580Y800100D02*
D03*
X441580D02*
D03*
X891160Y861060D02*
D03*
X907160D02*
D03*
X482980D02*
D03*
X466980D02*
D03*
X441580Y784860D02*
D03*
X457580D02*
D03*
X748790Y708660D02*
D03*
X732790D02*
D03*
X644780Y770890D02*
D03*
X660780D02*
D03*
X693040Y934720D02*
D03*
X709040D02*
D03*
X754000Y875030D02*
D03*
X770000D02*
D03*
X769620Y925830D02*
D03*
X785620D02*
D03*
X559560Y923290D02*
D03*
X543560D02*
D03*
X559560Y875030D02*
D03*
X543560D02*
D03*
X814580D02*
D03*
X830580D02*
D03*
X814580Y923290D02*
D03*
X830580D02*
D03*
X906400Y784860D02*
D03*
X922400D02*
D03*
X836170Y720090D02*
D03*
X852170D02*
D03*
X877440D02*
D03*
X893440D02*
D03*
X918710D02*
D03*
X934710D02*
D03*
D26*
X830580Y907160D02*
D03*
Y891160D02*
D03*
X543560D02*
D03*
Y907160D02*
D03*
X685170Y692910D02*
D03*
Y708910D02*
D03*
X764540Y693040D02*
D03*
Y709040D02*
D03*
D27*
X712580Y876300D02*
D03*
X694580D02*
D03*
D28*
X786130Y891920D02*
D03*
Y875920D02*
D03*
X666750Y709040D02*
D03*
Y693040D02*
D03*
D29*
X695960Y918320D02*
D03*
Y900320D02*
D03*
D30*
X657860Y924470D02*
D03*
Y881470D02*
D03*
D31*
X815840Y812166D02*
D03*
X830840D02*
D03*
D32*
X701050Y708660D02*
D03*
X717550D02*
D03*
Y693160D02*
D03*
X701050D02*
D03*
D55*
X457580Y784860D02*
X466330D01*
X826920Y703580D02*
X835670D01*
X868190D02*
X876940D01*
X909460D02*
X918210D01*
X710041Y695397D02*
X718791D01*
X676420Y692910D02*
X685170D01*
X764540Y693040D02*
X773290D01*
X922400Y784860D02*
X931150D01*
X618839Y930642D02*
Y939392D01*
X628301Y930642D02*
Y939392D01*
X821830Y907160D02*
X830580D01*
X832230Y905510D02*
X849300D01*
X832230Y892810D02*
X849300D01*
X907160Y861060D02*
X915910D01*
X524840Y905510D02*
X541910D01*
X524840Y892810D02*
X541910D01*
X543560Y891160D02*
X552310D01*
X458230Y861060D02*
X466980D01*
X664045Y890264D02*
X672795D01*
X664045Y872676D02*
X672795D01*
X664045Y881470D02*
X672795D01*
X642925D02*
X651675D01*
X642925Y872676D02*
X651675D01*
X642925Y890264D02*
X651675D01*
X785620Y917080D02*
Y925830D01*
X786130Y867170D02*
Y875920D01*
X685667Y881031D02*
X694417D01*
X685667Y871569D02*
X694417D01*
X700691Y891407D02*
Y900157D01*
X691229Y891407D02*
Y900157D01*
X636030Y843280D02*
X644780D01*
X831340Y844550D02*
X840090D01*
X831340Y828040D02*
X840090D01*
X830840Y812166D02*
X839590D01*
X831340Y757360D02*
X840090D01*
X636030Y770890D02*
X644780D01*
X635859Y755612D02*
X644609D01*
X635859Y740372D02*
X644609D01*
X635859Y725132D02*
X644609D01*
D56*
X510540Y742950D02*
X533729D01*
X491490Y723900D02*
X510540Y742950D01*
X516890Y725170D02*
X529590Y737870D01*
X536253D01*
X612677Y814294D01*
X533729Y742950D02*
X629920Y839141D01*
X516890Y723900D02*
Y725170D01*
X542290Y723900D02*
Y736552D01*
X614598Y808860D01*
X618790Y798740D02*
X659277D01*
X567690Y747640D02*
X618790Y798740D01*
X621078Y793217D02*
X657327D01*
X554383Y716943D02*
Y741403D01*
X616719Y803740D01*
X614598Y808860D02*
X662810D01*
X616719Y803740D02*
X661348D01*
X567690Y723900D02*
Y747640D01*
X580390Y711200D02*
Y752529D01*
X629920Y839141D02*
Y847090D01*
X612677Y814294D02*
X661894D01*
X580390Y752529D02*
X621078Y793217D01*
X529590Y711200D02*
X548640D01*
X516890Y698500D02*
X529590Y711200D01*
X548640D02*
X554383Y716943D01*
X567690Y698500D02*
X580390Y711200D01*
X661894Y814294D02*
X669960Y822360D01*
X610870Y741680D02*
Y764540D01*
X593090Y723900D02*
X610870Y741680D01*
Y764540D02*
X632760Y786430D01*
X661437D01*
X635000Y782320D02*
X656590D01*
X618490Y723900D02*
Y765810D01*
X635000Y782320D01*
X656590D02*
X659130Y779780D01*
X666168D02*
X668912Y777036D01*
X670125D01*
X659130Y779780D02*
X666168D01*
X661348Y803740D02*
X672727Y792360D01*
X662810Y808860D02*
X671310Y817360D01*
X659277Y798740D02*
X670656Y787360D01*
X746403Y773327D02*
X776640Y743090D01*
X710841Y773327D02*
X746403D01*
X711345Y781365D02*
X743905D01*
X710830Y780851D02*
X711345Y781365D01*
X743905D02*
X778510Y746760D01*
X705546Y786675D02*
X705557Y786686D01*
X731640Y729360D02*
Y741614D01*
X705557Y767697D02*
X731640Y741614D01*
X705557Y767697D02*
Y779165D01*
X705546Y779176D02*
X705557Y779165D01*
X705546Y779176D02*
Y786675D01*
X731640Y710190D02*
Y729360D01*
X776640D02*
Y743090D01*
X778510Y746760D02*
X783590D01*
X784190Y747360D01*
X794640D01*
X672727Y792360D02*
X683640D01*
X670656Y787360D02*
X683640D01*
X732790Y693040D02*
Y708660D01*
X670186Y699412D02*
X671674Y700900D01*
X624840Y850900D02*
X633043Y859103D01*
X599440Y850900D02*
X624840D01*
X559560Y875030D02*
X575310D01*
X599440Y850900D01*
X710834Y863966D02*
X721640Y853160D01*
X605424Y863966D02*
X710834D01*
X559560Y909830D02*
X605424Y863966D01*
X633043Y859103D02*
X709347D01*
X559560Y909830D02*
Y923290D01*
X709347Y859103D02*
X716640Y851810D01*
X629920Y847090D02*
X636785Y853955D01*
X708145D01*
X711357Y850743D01*
Y840643D02*
Y850743D01*
Y840643D02*
X711640Y840360D01*
X721640D02*
Y853160D01*
X716640Y840360D02*
Y851810D01*
X671310Y817360D02*
X683640D01*
X669960Y822360D02*
X683640D01*
X717550Y708660D02*
X717625Y708735D01*
Y715232D01*
X721640Y719247D01*
Y729360D01*
X731640Y710190D02*
X732790Y709040D01*
X669290Y693040D02*
X669496D01*
X670186Y696270D02*
Y699412D01*
X666956Y693040D02*
X670186Y696270D01*
X671674Y700900D02*
X692579D01*
X694067Y695271D02*
Y699412D01*
Y695271D02*
X696178Y693160D01*
X701050D01*
X692579Y700900D02*
X694067Y699412D01*
D57*
X491490Y698500D02*
D03*
X516890D02*
D03*
X542290D02*
D03*
X567690D02*
D03*
X593090D02*
D03*
X491490Y723900D02*
D03*
X516890D02*
D03*
X542290D02*
D03*
X567690D02*
D03*
X593090D02*
D03*
X618490Y698500D02*
D03*
X901310Y758051D02*
D03*
X390000Y720000D02*
D03*
Y800000D02*
D03*
Y920000D02*
D03*
Y760000D02*
D03*
Y880000D02*
D03*
Y840000D02*
D03*
X1000000Y720000D02*
D03*
Y760000D02*
D03*
Y800000D02*
D03*
Y840000D02*
D03*
Y880000D02*
D03*
Y920000D02*
D03*
D58*
X618490Y723900D02*
D03*
D59*
X926710Y758051D02*
D03*
D60*
X466330Y784860D02*
D03*
X670125Y777036D02*
D03*
X661437Y786430D02*
D03*
X657327Y793217D02*
D03*
X710841Y773327D02*
D03*
X710830Y780851D02*
D03*
X826920Y703580D02*
D03*
X868190D02*
D03*
X909460D02*
D03*
X705557Y786686D02*
D03*
X710041Y695397D02*
D03*
X676420Y692910D02*
D03*
X773290Y693040D02*
D03*
X728251Y823182D02*
D03*
X740951D02*
D03*
X753651D02*
D03*
Y857538D02*
D03*
X740951D02*
D03*
X728251D02*
D03*
X931150Y784860D02*
D03*
X636030Y828891D02*
D03*
X621623Y858022D02*
D03*
X618839Y939392D02*
D03*
X628301D02*
D03*
X821830Y907160D02*
D03*
X915910Y861060D02*
D03*
X552310Y891160D02*
D03*
X458230Y861060D02*
D03*
X674065Y890264D02*
D03*
Y872676D02*
D03*
Y881470D02*
D03*
X641655D02*
D03*
Y872676D02*
D03*
Y890264D02*
D03*
X740410Y911860D02*
D03*
Y924560D02*
D03*
X785620Y917080D02*
D03*
X786130Y867170D02*
D03*
X684397Y881031D02*
D03*
Y871569D02*
D03*
X700691Y890137D02*
D03*
X691229D02*
D03*
X636030Y843280D02*
D03*
X840090Y844550D02*
D03*
Y828040D02*
D03*
X839590Y812166D02*
D03*
X840090Y757360D02*
D03*
X636030Y770890D02*
D03*
X635859Y755612D02*
D03*
Y740372D02*
D03*
Y725132D02*
D03*
X780810Y817360D02*
D03*
X706640Y826530D02*
D03*
X697470Y752360D02*
D03*
X780810D02*
D03*
X756640Y743190D02*
D03*
M02*
