G04*
G04 #@! TF.GenerationSoftware,Altium Limited,Altium Designer,22.3.1 (43)*
G04*
G04 Layer_Color=8388736*
%FSLAX44Y44*%
%MOMM*%
G71*
G04*
G04 #@! TF.SameCoordinates,C52AF181-6C1B-4B2A-911A-4B769AFB4D18*
G04*
G04*
G04 #@! TF.FilePolarity,Negative*
G04*
G01*
G75*
%ADD33R,1.1532X1.2032*%
%ADD34R,1.0032X1.0032*%
%ADD35R,1.7032X1.2032*%
%ADD36O,2.0032X0.5032*%
%ADD37O,0.5032X2.0032*%
%ADD38R,1.3032X2.1032*%
%ADD39R,0.8282X0.6032*%
%ADD40R,1.7532X0.8032*%
%ADD41R,2.0032X1.3532*%
%ADD42R,1.1032X1.2032*%
%ADD43R,1.2032X1.1532*%
%ADD44R,1.2532X1.6032*%
%ADD45R,1.2032X1.1032*%
%ADD46R,1.6032X1.2532*%
%ADD47R,2.3532X2.5032*%
%ADD48R,1.1532X1.1532*%
%ADD49R,0.8532X1.0532*%
%ADD50C,1.9032*%
%ADD51R,1.9032X1.9032*%
%ADD52R,1.9032X1.9032*%
%ADD53C,0.2032*%
%ADD54C,0.8032*%
D33*
X732790Y693040D02*
D03*
X748790D02*
D03*
X770000Y891540D02*
D03*
X754000D02*
D03*
X644780Y843280D02*
D03*
X660780D02*
D03*
X831340Y828040D02*
D03*
X815340D02*
D03*
X831340Y757360D02*
D03*
X815340D02*
D03*
X644609Y755612D02*
D03*
X660609D02*
D03*
X644609Y725132D02*
D03*
X660609D02*
D03*
X644609Y740372D02*
D03*
X660609D02*
D03*
X831340Y844550D02*
D03*
X815340D02*
D03*
D34*
X852170Y703580D02*
D03*
X835670D02*
D03*
X893440D02*
D03*
X876940D02*
D03*
X934710D02*
D03*
X918210D02*
D03*
D35*
X623570Y908480D02*
D03*
Y930480D02*
D03*
D36*
X683640Y747360D02*
D03*
Y752360D02*
D03*
Y757360D02*
D03*
Y762360D02*
D03*
Y767360D02*
D03*
Y772360D02*
D03*
Y777360D02*
D03*
Y782360D02*
D03*
Y787360D02*
D03*
Y792360D02*
D03*
Y797360D02*
D03*
Y802360D02*
D03*
Y807360D02*
D03*
Y812360D02*
D03*
Y817360D02*
D03*
Y822360D02*
D03*
X794640D02*
D03*
Y817360D02*
D03*
Y812360D02*
D03*
Y807360D02*
D03*
Y802360D02*
D03*
Y797360D02*
D03*
Y792360D02*
D03*
Y787360D02*
D03*
Y782360D02*
D03*
Y777360D02*
D03*
Y772360D02*
D03*
Y767360D02*
D03*
Y762360D02*
D03*
Y757360D02*
D03*
Y752360D02*
D03*
Y747360D02*
D03*
D37*
X701640Y840360D02*
D03*
X706640D02*
D03*
X711640D02*
D03*
X716640D02*
D03*
X721640D02*
D03*
X726640D02*
D03*
X731640D02*
D03*
X736640D02*
D03*
X741640D02*
D03*
X746640D02*
D03*
X751640D02*
D03*
X756640D02*
D03*
X761640D02*
D03*
X766640D02*
D03*
X771640D02*
D03*
X776640D02*
D03*
Y729360D02*
D03*
X771640D02*
D03*
X766640D02*
D03*
X761640D02*
D03*
X756640D02*
D03*
X751640D02*
D03*
X746640D02*
D03*
X741640D02*
D03*
X736640D02*
D03*
X731640D02*
D03*
X726640D02*
D03*
X721640D02*
D03*
X716640D02*
D03*
X711640D02*
D03*
X706640D02*
D03*
X701640D02*
D03*
D38*
X740410Y918210D02*
D03*
D39*
X729285Y927960D02*
D03*
Y921460D02*
D03*
Y914960D02*
D03*
Y908460D02*
D03*
X751535Y927960D02*
D03*
Y921460D02*
D03*
Y914960D02*
D03*
Y908460D02*
D03*
D40*
X903300Y880110D02*
D03*
Y892810D02*
D03*
Y905510D02*
D03*
Y918210D02*
D03*
X849300Y880110D02*
D03*
Y892810D02*
D03*
Y905510D02*
D03*
Y918210D02*
D03*
X470840D02*
D03*
Y905510D02*
D03*
Y892810D02*
D03*
Y880110D02*
D03*
X524840Y918210D02*
D03*
Y905510D02*
D03*
Y892810D02*
D03*
Y880110D02*
D03*
D41*
X927100Y913660D02*
D03*
Y884660D02*
D03*
X447040D02*
D03*
Y913660D02*
D03*
D42*
X860680Y861060D02*
D03*
X876680D02*
D03*
X513460D02*
D03*
X497460D02*
D03*
X457580Y800100D02*
D03*
X441580D02*
D03*
X891160Y861060D02*
D03*
X907160D02*
D03*
X482980D02*
D03*
X466980D02*
D03*
X441580Y784860D02*
D03*
X457580D02*
D03*
X748790Y708660D02*
D03*
X732790D02*
D03*
X644780Y770890D02*
D03*
X660780D02*
D03*
X693040Y934720D02*
D03*
X709040D02*
D03*
X754000Y875030D02*
D03*
X770000D02*
D03*
X769620Y925830D02*
D03*
X785620D02*
D03*
X559560Y923290D02*
D03*
X543560D02*
D03*
X559560Y875030D02*
D03*
X543560D02*
D03*
X814580D02*
D03*
X830580D02*
D03*
X814580Y923290D02*
D03*
X830580D02*
D03*
X906400Y784860D02*
D03*
X922400D02*
D03*
X836170Y720090D02*
D03*
X852170D02*
D03*
X877440D02*
D03*
X893440D02*
D03*
X918710D02*
D03*
X934710D02*
D03*
D43*
X830580Y907160D02*
D03*
Y891160D02*
D03*
X543560D02*
D03*
Y907160D02*
D03*
X685170Y692910D02*
D03*
Y708910D02*
D03*
X764540Y693040D02*
D03*
Y709040D02*
D03*
D44*
X712580Y876300D02*
D03*
X694580D02*
D03*
D45*
X786130Y891920D02*
D03*
Y875920D02*
D03*
X666750Y709040D02*
D03*
Y693040D02*
D03*
D46*
X695960Y918320D02*
D03*
Y900320D02*
D03*
D47*
X657860Y924470D02*
D03*
Y881470D02*
D03*
D48*
X815840Y812166D02*
D03*
X830840D02*
D03*
D49*
X701050Y708660D02*
D03*
X717550D02*
D03*
Y693160D02*
D03*
X701050D02*
D03*
D50*
X491490Y698500D02*
D03*
X516890D02*
D03*
X542290D02*
D03*
X567690D02*
D03*
X593090D02*
D03*
X491490Y723900D02*
D03*
X516890D02*
D03*
X542290D02*
D03*
X567690D02*
D03*
X593090D02*
D03*
X618490Y698500D02*
D03*
X901310Y758051D02*
D03*
X390000Y720000D02*
D03*
Y800000D02*
D03*
Y920000D02*
D03*
Y760000D02*
D03*
Y880000D02*
D03*
Y840000D02*
D03*
X1000000Y720000D02*
D03*
Y760000D02*
D03*
Y800000D02*
D03*
Y840000D02*
D03*
Y880000D02*
D03*
Y920000D02*
D03*
D51*
X618490Y723900D02*
D03*
D52*
X926710Y758051D02*
D03*
D53*
X1030000Y920000D02*
D03*
Y880000D02*
D03*
Y840000D02*
D03*
Y800000D02*
D03*
Y760000D02*
D03*
Y720000D02*
D03*
X360000D02*
D03*
Y760000D02*
D03*
Y800000D02*
D03*
Y840000D02*
D03*
Y880000D02*
D03*
Y920000D02*
D03*
D54*
X740410Y911860D02*
D03*
Y924560D02*
D03*
M02*
