G04*
G04 #@! TF.GenerationSoftware,Altium Limited,Altium Designer,22.3.1 (43)*
G04*
G04 Layer_Color=16711935*
%FSLAX44Y44*%
%MOMM*%
G71*
G04*
G04 #@! TF.SameCoordinates,C52AF181-6C1B-4B2A-911A-4B769AFB4D18*
G04*
G04*
G04 #@! TF.FilePolarity,Negative*
G04*
G01*
G75*
%ADD50C,1.9032*%
%ADD51R,1.9032X1.9032*%
%ADD52R,1.9032X1.9032*%
%ADD53C,0.2032*%
%ADD54C,0.8032*%
D50*
X491490Y698500D02*
D03*
X516890D02*
D03*
X542290D02*
D03*
X567690D02*
D03*
X593090D02*
D03*
X491490Y723900D02*
D03*
X516890D02*
D03*
X542290D02*
D03*
X567690D02*
D03*
X593090D02*
D03*
X618490Y698500D02*
D03*
X901310Y758051D02*
D03*
X390000Y720000D02*
D03*
Y800000D02*
D03*
Y920000D02*
D03*
Y760000D02*
D03*
Y880000D02*
D03*
Y840000D02*
D03*
X1000000Y720000D02*
D03*
Y760000D02*
D03*
Y800000D02*
D03*
Y840000D02*
D03*
Y880000D02*
D03*
Y920000D02*
D03*
D51*
X618490Y723900D02*
D03*
D52*
X926710Y758051D02*
D03*
D53*
X1030000Y920000D02*
D03*
Y880000D02*
D03*
Y840000D02*
D03*
Y800000D02*
D03*
Y760000D02*
D03*
Y720000D02*
D03*
X360000D02*
D03*
Y760000D02*
D03*
Y800000D02*
D03*
Y840000D02*
D03*
Y880000D02*
D03*
Y920000D02*
D03*
D54*
X740410Y911860D02*
D03*
Y924560D02*
D03*
M02*
