G04*
G04 #@! TF.GenerationSoftware,Altium Limited,Altium Designer,22.3.1 (43)*
G04*
G04 Layer_Color=32768*
%FSLAX44Y44*%
%MOMM*%
G71*
G04*
G04 #@! TF.SameCoordinates,C52AF181-6C1B-4B2A-911A-4B769AFB4D18*
G04*
G04*
G04 #@! TF.FilePolarity,Positive*
G04*
G01*
G75*
%ADD13C,0.2540*%
%ADD62C,0.3810*%
%ADD63C,0.0254*%
D13*
X1032475Y1291585D02*
Y1276350D01*
X1040092D01*
X1042631Y1278889D01*
Y1281428D01*
X1040092Y1283967D01*
X1032475D01*
X1040092D01*
X1042631Y1286507D01*
Y1289046D01*
X1040092Y1291585D01*
X1032475D01*
X1050249Y1276350D02*
X1055327D01*
X1057867Y1278889D01*
Y1283967D01*
X1055327Y1286507D01*
X1050249D01*
X1047710Y1283967D01*
Y1278889D01*
X1050249Y1276350D01*
X1065484Y1286507D02*
X1070562D01*
X1073102Y1283967D01*
Y1276350D01*
X1065484D01*
X1062945Y1278889D01*
X1065484Y1281428D01*
X1073102D01*
X1078180Y1286507D02*
Y1276350D01*
Y1281428D01*
X1080719Y1283967D01*
X1083258Y1286507D01*
X1085797D01*
X1103572Y1291585D02*
Y1276350D01*
X1095954D01*
X1093415Y1278889D01*
Y1283967D01*
X1095954Y1286507D01*
X1103572D01*
X1123885Y1291585D02*
Y1276350D01*
X1134042D01*
X1141659Y1286507D02*
X1146738D01*
X1149277Y1283967D01*
Y1276350D01*
X1141659D01*
X1139120Y1278889D01*
X1141659Y1281428D01*
X1149277D01*
X1154355Y1286507D02*
Y1278889D01*
X1156894Y1276350D01*
X1164512D01*
Y1273811D01*
X1161973Y1271272D01*
X1159434D01*
X1164512Y1276350D02*
Y1286507D01*
X1177208Y1276350D02*
X1172130D01*
X1169590Y1278889D01*
Y1283967D01*
X1172130Y1286507D01*
X1177208D01*
X1179747Y1283967D01*
Y1281428D01*
X1169590D01*
X1184825Y1286507D02*
Y1276350D01*
Y1281428D01*
X1187365Y1283967D01*
X1189904Y1286507D01*
X1192443D01*
X1225452Y1289046D02*
X1222913Y1291585D01*
X1217835D01*
X1215295Y1289046D01*
Y1286507D01*
X1217835Y1283967D01*
X1222913D01*
X1225452Y1281428D01*
Y1278889D01*
X1222913Y1276350D01*
X1217835D01*
X1215295Y1278889D01*
X1233070Y1289046D02*
Y1286507D01*
X1230531D01*
X1235609D01*
X1233070D01*
Y1278889D01*
X1235609Y1276350D01*
X1245766Y1286507D02*
X1250844D01*
X1253383Y1283967D01*
Y1276350D01*
X1245766D01*
X1243226Y1278889D01*
X1245766Y1281428D01*
X1253383D01*
X1268618Y1286507D02*
X1261001D01*
X1258462Y1283967D01*
Y1278889D01*
X1261001Y1276350D01*
X1268618D01*
X1273697D02*
Y1291585D01*
Y1281428D02*
X1281314Y1286507D01*
X1273697Y1281428D02*
X1281314Y1276350D01*
X887730Y1228086D02*
X890269Y1230625D01*
X895348D01*
X897887Y1228086D01*
Y1225547D01*
X895348Y1223008D01*
X892808D01*
X895348D01*
X897887Y1220468D01*
Y1217929D01*
X895348Y1215390D01*
X890269D01*
X887730Y1217929D01*
X902965Y1215390D02*
Y1217929D01*
X905504D01*
Y1215390D01*
X902965D01*
X925818Y1230625D02*
X915661D01*
Y1223008D01*
X920739Y1225547D01*
X923279D01*
X925818Y1223008D01*
Y1217929D01*
X923279Y1215390D01*
X918200D01*
X915661Y1217929D01*
X895348Y1154430D02*
Y1169665D01*
X887730Y1162048D01*
X897887D01*
X902965Y1154430D02*
Y1156969D01*
X905504D01*
Y1154430D01*
X902965D01*
X915661Y1167126D02*
X918200Y1169665D01*
X923279D01*
X925818Y1167126D01*
Y1164587D01*
X923279Y1162048D01*
X925818Y1159508D01*
Y1156969D01*
X923279Y1154430D01*
X918200D01*
X915661Y1156969D01*
Y1159508D01*
X918200Y1162048D01*
X915661Y1164587D01*
Y1167126D01*
X918200Y1162048D02*
X923279D01*
X887730Y1106166D02*
X890269Y1108705D01*
X895348D01*
X897887Y1106166D01*
Y1103627D01*
X895348Y1101087D01*
X892808D01*
X895348D01*
X897887Y1098548D01*
Y1096009D01*
X895348Y1093470D01*
X890269D01*
X887730Y1096009D01*
X902965Y1093470D02*
Y1096009D01*
X905504D01*
Y1093470D01*
X902965D01*
X925818Y1108705D02*
X915661D01*
Y1101087D01*
X920739Y1103627D01*
X923279D01*
X925818Y1101087D01*
Y1096009D01*
X923279Y1093470D01*
X918200D01*
X915661Y1096009D01*
X897887Y1289046D02*
X895348Y1291585D01*
X890269D01*
X887730Y1289046D01*
Y1278889D01*
X890269Y1276350D01*
X895348D01*
X897887Y1278889D01*
X905504Y1276350D02*
X910583D01*
X913122Y1278889D01*
Y1283967D01*
X910583Y1286507D01*
X905504D01*
X902965Y1283967D01*
Y1278889D01*
X905504Y1276350D01*
X918200D02*
Y1286507D01*
X925818D01*
X928357Y1283967D01*
Y1276350D01*
X933435D02*
X941053D01*
X943592Y1278889D01*
X941053Y1281428D01*
X935974D01*
X933435Y1283967D01*
X935974Y1286507D01*
X943592D01*
X951209Y1289046D02*
Y1286507D01*
X948670D01*
X953749D01*
X951209D01*
Y1278889D01*
X953749Y1276350D01*
X963905Y1286507D02*
X968984D01*
X971523Y1283967D01*
Y1276350D01*
X963905D01*
X961366Y1278889D01*
X963905Y1281428D01*
X971523D01*
X976601Y1276350D02*
Y1286507D01*
X984219D01*
X986758Y1283967D01*
Y1276350D01*
X994376Y1289046D02*
Y1286507D01*
X991836D01*
X996915D01*
X994376D01*
Y1278889D01*
X996915Y1276350D01*
X722672Y1228086D02*
X725211Y1230625D01*
X730289D01*
X732829Y1228086D01*
Y1217929D01*
X730289Y1215390D01*
X725211D01*
X722672Y1217929D01*
Y1228086D01*
X737907Y1215390D02*
Y1217929D01*
X740446D01*
Y1215390D01*
X737907D01*
X750603Y1228086D02*
X753142Y1230625D01*
X758220D01*
X760760Y1228086D01*
Y1217929D01*
X758220Y1215390D01*
X753142D01*
X750603Y1217929D01*
Y1228086D01*
X765838Y1215390D02*
X770916D01*
X768377D01*
Y1230625D01*
X765838Y1228086D01*
X778534D02*
X781073Y1230625D01*
X786151D01*
X788690Y1228086D01*
Y1217929D01*
X786151Y1215390D01*
X781073D01*
X778534Y1217929D01*
Y1228086D01*
X793769Y1215390D02*
Y1225547D01*
X796308D01*
X798847Y1223008D01*
Y1215390D01*
Y1223008D01*
X801386Y1225547D01*
X803926Y1223008D01*
Y1215390D01*
X809004D02*
Y1225547D01*
X811543D01*
X814082Y1223008D01*
Y1215390D01*
Y1223008D01*
X816621Y1225547D01*
X819161Y1223008D01*
Y1215390D01*
X722672Y1197606D02*
X725211Y1200145D01*
X730289D01*
X732829Y1197606D01*
Y1187449D01*
X730289Y1184910D01*
X725211D01*
X722672Y1187449D01*
Y1197606D01*
X737907Y1184910D02*
Y1187449D01*
X740446D01*
Y1184910D01*
X737907D01*
X750603Y1197606D02*
X753142Y1200145D01*
X758220D01*
X760760Y1197606D01*
Y1187449D01*
X758220Y1184910D01*
X753142D01*
X750603Y1187449D01*
Y1197606D01*
X765838D02*
X768377Y1200145D01*
X773456D01*
X775995Y1197606D01*
Y1195067D01*
X773456Y1192527D01*
X770916D01*
X773456D01*
X775995Y1189988D01*
Y1187449D01*
X773456Y1184910D01*
X768377D01*
X765838Y1187449D01*
X791230Y1200145D02*
X786151Y1197606D01*
X781073Y1192527D01*
Y1187449D01*
X783612Y1184910D01*
X788690D01*
X791230Y1187449D01*
Y1189988D01*
X788690Y1192527D01*
X781073D01*
X796308Y1184910D02*
Y1195067D01*
X798847D01*
X801386Y1192527D01*
Y1184910D01*
Y1192527D01*
X803926Y1195067D01*
X806465Y1192527D01*
Y1184910D01*
X811543D02*
Y1195067D01*
X814082D01*
X816621Y1192527D01*
Y1184910D01*
Y1192527D01*
X819161Y1195067D01*
X821700Y1192527D01*
Y1184910D01*
X722672Y1154430D02*
X727750D01*
X725211D01*
Y1169665D01*
X722672Y1167126D01*
X735368Y1154430D02*
Y1156969D01*
X737907D01*
Y1154430D01*
X735368D01*
X748064Y1167126D02*
X750603Y1169665D01*
X755681D01*
X758220Y1167126D01*
Y1156969D01*
X755681Y1154430D01*
X750603D01*
X748064Y1156969D01*
Y1167126D01*
X763299D02*
X765838Y1169665D01*
X770916D01*
X773456Y1167126D01*
Y1156969D01*
X770916Y1154430D01*
X765838D01*
X763299Y1156969D01*
Y1167126D01*
X778534D02*
X781073Y1169665D01*
X786151D01*
X788690Y1167126D01*
Y1156969D01*
X786151Y1154430D01*
X781073D01*
X778534Y1156969D01*
Y1167126D01*
X793769Y1154430D02*
Y1164587D01*
X796308D01*
X798847Y1162048D01*
Y1154430D01*
Y1162048D01*
X801386Y1164587D01*
X803926Y1162048D01*
Y1154430D01*
X809004D02*
Y1164587D01*
X811543D01*
X814082Y1162048D01*
Y1154430D01*
Y1162048D01*
X816621Y1164587D01*
X819161Y1162048D01*
Y1154430D01*
X722672Y1136646D02*
X725211Y1139185D01*
X730289D01*
X732829Y1136646D01*
Y1126489D01*
X730289Y1123950D01*
X725211D01*
X722672Y1126489D01*
Y1136646D01*
X737907Y1123950D02*
Y1126489D01*
X740446D01*
Y1123950D01*
X737907D01*
X750603Y1136646D02*
X753142Y1139185D01*
X758220D01*
X760760Y1136646D01*
Y1126489D01*
X758220Y1123950D01*
X753142D01*
X750603Y1126489D01*
Y1136646D01*
X765838D02*
X768377Y1139185D01*
X773456D01*
X775995Y1136646D01*
Y1134107D01*
X773456Y1131568D01*
X770916D01*
X773456D01*
X775995Y1129028D01*
Y1126489D01*
X773456Y1123950D01*
X768377D01*
X765838Y1126489D01*
X791230Y1139185D02*
X786151Y1136646D01*
X781073Y1131568D01*
Y1126489D01*
X783612Y1123950D01*
X788690D01*
X791230Y1126489D01*
Y1129028D01*
X788690Y1131568D01*
X781073D01*
X796308Y1123950D02*
Y1134107D01*
X798847D01*
X801386Y1131568D01*
Y1123950D01*
Y1131568D01*
X803926Y1134107D01*
X806465Y1131568D01*
Y1123950D01*
X811543D02*
Y1134107D01*
X814082D01*
X816621Y1131568D01*
Y1123950D01*
Y1131568D01*
X819161Y1134107D01*
X821700Y1131568D01*
Y1123950D01*
X722672Y1106166D02*
X725211Y1108705D01*
X730289D01*
X732829Y1106166D01*
Y1096009D01*
X730289Y1093470D01*
X725211D01*
X722672Y1096009D01*
Y1106166D01*
X737907Y1093470D02*
Y1096009D01*
X740446D01*
Y1093470D01*
X737907D01*
X750603Y1106166D02*
X753142Y1108705D01*
X758220D01*
X760760Y1106166D01*
Y1096009D01*
X758220Y1093470D01*
X753142D01*
X750603Y1096009D01*
Y1106166D01*
X765838Y1093470D02*
X770916D01*
X768377D01*
Y1108705D01*
X765838Y1106166D01*
X778534D02*
X781073Y1108705D01*
X786151D01*
X788690Y1106166D01*
Y1096009D01*
X786151Y1093470D01*
X781073D01*
X778534Y1096009D01*
Y1106166D01*
X793769Y1093470D02*
Y1103627D01*
X796308D01*
X798847Y1101087D01*
Y1093470D01*
Y1101087D01*
X801386Y1103627D01*
X803926Y1101087D01*
Y1093470D01*
X809004D02*
Y1103627D01*
X811543D01*
X814082Y1101087D01*
Y1093470D01*
Y1101087D01*
X816621Y1103627D01*
X819161Y1101087D01*
Y1093470D01*
X722672Y1291585D02*
X732829D01*
X727750D01*
Y1276350D01*
X737907Y1291585D02*
Y1276350D01*
Y1283967D01*
X740446Y1286507D01*
X745525D01*
X748064Y1283967D01*
Y1276350D01*
X753142D02*
X758220D01*
X755681D01*
Y1286507D01*
X753142D01*
X775995D02*
X768377D01*
X765838Y1283967D01*
Y1278889D01*
X768377Y1276350D01*
X775995D01*
X781073D02*
Y1291585D01*
Y1281428D02*
X788690Y1286507D01*
X781073Y1281428D02*
X788690Y1276350D01*
X796308D02*
Y1286507D01*
X803926D01*
X806465Y1283967D01*
Y1276350D01*
X819161D02*
X814082D01*
X811543Y1278889D01*
Y1283967D01*
X814082Y1286507D01*
X819161D01*
X821700Y1283967D01*
Y1281428D01*
X811543D01*
X826778Y1276350D02*
X834396D01*
X836935Y1278889D01*
X834396Y1281428D01*
X829317D01*
X826778Y1283967D01*
X829317Y1286507D01*
X836935D01*
X842013Y1276350D02*
X849631D01*
X852170Y1278889D01*
X849631Y1281428D01*
X844553D01*
X842013Y1283967D01*
X844553Y1286507D01*
X852170D01*
X514448Y1228086D02*
X511909Y1230625D01*
X506830D01*
X504291Y1228086D01*
Y1225547D01*
X506830Y1223008D01*
X511909D01*
X514448Y1220468D01*
Y1217929D01*
X511909Y1215390D01*
X506830D01*
X504291Y1217929D01*
X522065Y1215390D02*
X527144D01*
X529683Y1217929D01*
Y1223008D01*
X527144Y1225547D01*
X522065D01*
X519526Y1223008D01*
Y1217929D01*
X522065Y1215390D01*
X534761D02*
X539840D01*
X537300D01*
Y1230625D01*
X534761D01*
X557614D02*
Y1215390D01*
X549996D01*
X547457Y1217929D01*
Y1223008D01*
X549996Y1225547D01*
X557614D01*
X570310Y1215390D02*
X565231D01*
X562692Y1217929D01*
Y1223008D01*
X565231Y1225547D01*
X570310D01*
X572849Y1223008D01*
Y1220468D01*
X562692D01*
X577927Y1225547D02*
Y1215390D01*
Y1220468D01*
X580466Y1223008D01*
X583006Y1225547D01*
X585545D01*
X608397Y1215390D02*
Y1230625D01*
X616015D01*
X618554Y1228086D01*
Y1223008D01*
X616015Y1220468D01*
X608397D01*
X613476D02*
X618554Y1215390D01*
X631250D02*
X626172D01*
X623632Y1217929D01*
Y1223008D01*
X626172Y1225547D01*
X631250D01*
X633789Y1223008D01*
Y1220468D01*
X623632D01*
X638867Y1215390D02*
X646485D01*
X649024Y1217929D01*
X646485Y1220468D01*
X641407D01*
X638867Y1223008D01*
X641407Y1225547D01*
X649024D01*
X654103Y1215390D02*
X659181D01*
X656642D01*
Y1225547D01*
X654103D01*
X666798Y1215390D02*
X674416D01*
X676955Y1217929D01*
X674416Y1220468D01*
X669338D01*
X666798Y1223008D01*
X669338Y1225547D01*
X676955D01*
X684573Y1228086D02*
Y1225547D01*
X682033D01*
X687112D01*
X684573D01*
Y1217929D01*
X687112Y1215390D01*
X514448Y1169665D02*
X504291D01*
Y1162048D01*
X509369D01*
X504291D01*
Y1154430D01*
X519526D02*
Y1169665D01*
X527144D01*
X529683Y1167126D01*
Y1162048D01*
X527144Y1159508D01*
X519526D01*
X524604D02*
X529683Y1154430D01*
X534761Y1162048D02*
X544918D01*
X557614Y1154430D02*
Y1169665D01*
X549996Y1162048D01*
X560153D01*
X514448Y1106166D02*
X511909Y1108705D01*
X506830D01*
X504291Y1106166D01*
Y1103627D01*
X506830Y1101087D01*
X511909D01*
X514448Y1098548D01*
Y1096009D01*
X511909Y1093470D01*
X506830D01*
X504291Y1096009D01*
X522065Y1093470D02*
X527144D01*
X529683Y1096009D01*
Y1101087D01*
X527144Y1103627D01*
X522065D01*
X519526Y1101087D01*
Y1096009D01*
X522065Y1093470D01*
X534761D02*
X539840D01*
X537300D01*
Y1108705D01*
X534761D01*
X557614D02*
Y1093470D01*
X549996D01*
X547457Y1096009D01*
Y1101087D01*
X549996Y1103627D01*
X557614D01*
X570310Y1093470D02*
X565231D01*
X562692Y1096009D01*
Y1101087D01*
X565231Y1103627D01*
X570310D01*
X572849Y1101087D01*
Y1098548D01*
X562692D01*
X577927Y1103627D02*
Y1093470D01*
Y1098548D01*
X580466Y1101087D01*
X583006Y1103627D01*
X585545D01*
X608397Y1093470D02*
Y1108705D01*
X616015D01*
X618554Y1106166D01*
Y1101087D01*
X616015Y1098548D01*
X608397D01*
X613476D02*
X618554Y1093470D01*
X631250D02*
X626172D01*
X623632Y1096009D01*
Y1101087D01*
X626172Y1103627D01*
X631250D01*
X633789Y1101087D01*
Y1098548D01*
X623632D01*
X638867Y1093470D02*
X646485D01*
X649024Y1096009D01*
X646485Y1098548D01*
X641407D01*
X638867Y1101087D01*
X641407Y1103627D01*
X649024D01*
X654103Y1093470D02*
X659181D01*
X656642D01*
Y1103627D01*
X654103D01*
X666798Y1093470D02*
X674416D01*
X676955Y1096009D01*
X674416Y1098548D01*
X669338D01*
X666798Y1101087D01*
X669338Y1103627D01*
X676955D01*
X684573Y1106166D02*
Y1103627D01*
X682033D01*
X687112D01*
X684573D01*
Y1096009D01*
X687112Y1093470D01*
X504291Y1276350D02*
Y1291585D01*
X509369Y1286507D01*
X514448Y1291585D01*
Y1276350D01*
X522065Y1286507D02*
X527144D01*
X529683Y1283967D01*
Y1276350D01*
X522065D01*
X519526Y1278889D01*
X522065Y1281428D01*
X529683D01*
X537300Y1289046D02*
Y1286507D01*
X534761D01*
X539840D01*
X537300D01*
Y1278889D01*
X539840Y1276350D01*
X555075D02*
X549996D01*
X547457Y1278889D01*
Y1283967D01*
X549996Y1286507D01*
X555075D01*
X557614Y1283967D01*
Y1281428D01*
X547457D01*
X562692Y1286507D02*
Y1276350D01*
Y1281428D01*
X565231Y1283967D01*
X567771Y1286507D01*
X570310D01*
X577927Y1276350D02*
X583006D01*
X580466D01*
Y1286507D01*
X577927D01*
X593162D02*
X598241D01*
X600780Y1283967D01*
Y1276350D01*
X593162D01*
X590623Y1278889D01*
X593162Y1281428D01*
X600780D01*
X605858Y1276350D02*
X610937D01*
X608397D01*
Y1291585D01*
X605858D01*
X268136Y1261105D02*
X278293D01*
X273214D01*
Y1245870D01*
X285910D02*
X290989D01*
X293528Y1248409D01*
Y1253487D01*
X290989Y1256027D01*
X285910D01*
X283371Y1253487D01*
Y1248409D01*
X285910Y1245870D01*
X298606Y1240792D02*
Y1256027D01*
X306224D01*
X308763Y1253487D01*
Y1248409D01*
X306224Y1245870D01*
X298606D01*
X336694Y1261105D02*
X331615D01*
X329076Y1258566D01*
Y1248409D01*
X331615Y1245870D01*
X336694D01*
X339233Y1248409D01*
Y1258566D01*
X336694Y1261105D01*
X344311Y1256027D02*
X349390Y1245870D01*
X354468Y1256027D01*
X367164Y1245870D02*
X362086D01*
X359546Y1248409D01*
Y1253487D01*
X362086Y1256027D01*
X367164D01*
X369703Y1253487D01*
Y1250948D01*
X359546D01*
X374781Y1256027D02*
Y1245870D01*
Y1250948D01*
X377321Y1253487D01*
X379860Y1256027D01*
X382399D01*
X390017Y1245870D02*
X395095D01*
X392556D01*
Y1261105D01*
X390017D01*
X405252Y1256027D02*
X410330D01*
X412869Y1253487D01*
Y1245870D01*
X405252D01*
X402712Y1248409D01*
X405252Y1250948D01*
X412869D01*
X417948Y1256027D02*
Y1248409D01*
X420487Y1245870D01*
X428104D01*
Y1243331D01*
X425565Y1240792D01*
X423026D01*
X428104Y1245870D02*
Y1256027D01*
X268136Y1230625D02*
X278293D01*
X273214D01*
Y1215390D01*
X285910D02*
X290989D01*
X293528Y1217929D01*
Y1223008D01*
X290989Y1225547D01*
X285910D01*
X283371Y1223008D01*
Y1217929D01*
X285910Y1215390D01*
X298606Y1210312D02*
Y1225547D01*
X306224D01*
X308763Y1223008D01*
Y1217929D01*
X306224Y1215390D01*
X298606D01*
X339233Y1228086D02*
X336694Y1230625D01*
X331615D01*
X329076Y1228086D01*
Y1225547D01*
X331615Y1223008D01*
X336694D01*
X339233Y1220468D01*
Y1217929D01*
X336694Y1215390D01*
X331615D01*
X329076Y1217929D01*
X346851Y1215390D02*
X351929D01*
X354468Y1217929D01*
Y1223008D01*
X351929Y1225547D01*
X346851D01*
X344311Y1223008D01*
Y1217929D01*
X346851Y1215390D01*
X359546D02*
X364625D01*
X362086D01*
Y1230625D01*
X359546D01*
X382399D02*
Y1215390D01*
X374781D01*
X372242Y1217929D01*
Y1223008D01*
X374781Y1225547D01*
X382399D01*
X395095Y1215390D02*
X390017D01*
X387477Y1217929D01*
Y1223008D01*
X390017Y1225547D01*
X395095D01*
X397634Y1223008D01*
Y1220468D01*
X387477D01*
X402712Y1225547D02*
Y1215390D01*
Y1220468D01*
X405252Y1223008D01*
X407791Y1225547D01*
X410330D01*
X268136Y1200145D02*
X278293D01*
X273214D01*
Y1184910D01*
X285910D02*
X290989D01*
X293528Y1187449D01*
Y1192527D01*
X290989Y1195067D01*
X285910D01*
X283371Y1192527D01*
Y1187449D01*
X285910Y1184910D01*
X298606Y1179832D02*
Y1195067D01*
X306224D01*
X308763Y1192527D01*
Y1187449D01*
X306224Y1184910D01*
X298606D01*
X329076Y1200145D02*
Y1184910D01*
X339233D01*
X346851Y1195067D02*
X351929D01*
X354468Y1192527D01*
Y1184910D01*
X346851D01*
X344311Y1187449D01*
X346851Y1189988D01*
X354468D01*
X359546Y1195067D02*
Y1187449D01*
X362086Y1184910D01*
X369703D01*
Y1182371D01*
X367164Y1179832D01*
X364625D01*
X369703Y1184910D02*
Y1195067D01*
X382399Y1184910D02*
X377321D01*
X374781Y1187449D01*
Y1192527D01*
X377321Y1195067D01*
X382399D01*
X384938Y1192527D01*
Y1189988D01*
X374781D01*
X390017Y1195067D02*
Y1184910D01*
Y1189988D01*
X392556Y1192527D01*
X395095Y1195067D01*
X397634D01*
X268136Y1169665D02*
Y1154430D01*
X275753D01*
X278293Y1156969D01*
Y1167126D01*
X275753Y1169665D01*
X268136D01*
X283371Y1154430D02*
X288449D01*
X285910D01*
Y1164587D01*
X283371D01*
X303684Y1154430D02*
X298606D01*
X296067Y1156969D01*
Y1162048D01*
X298606Y1164587D01*
X303684D01*
X306224Y1162048D01*
Y1159508D01*
X296067D01*
X311302Y1154430D02*
X316380D01*
X313841D01*
Y1169665D01*
X311302D01*
X331615Y1154430D02*
X326537D01*
X323998Y1156969D01*
Y1162048D01*
X326537Y1164587D01*
X331615D01*
X334155Y1162048D01*
Y1159508D01*
X323998D01*
X349390Y1164587D02*
X341772D01*
X339233Y1162048D01*
Y1156969D01*
X341772Y1154430D01*
X349390D01*
X357007Y1167126D02*
Y1164587D01*
X354468D01*
X359546D01*
X357007D01*
Y1156969D01*
X359546Y1154430D01*
X367164Y1164587D02*
Y1154430D01*
Y1159508D01*
X369703Y1162048D01*
X372242Y1164587D01*
X374781D01*
X382399Y1154430D02*
X387477D01*
X384938D01*
Y1164587D01*
X382399D01*
X405252D02*
X397634D01*
X395095Y1162048D01*
Y1156969D01*
X397634Y1154430D01*
X405252D01*
X425565D02*
X430643D01*
X428104D01*
Y1169665D01*
X425565Y1167126D01*
X268136Y1139185D02*
Y1123950D01*
X275753D01*
X278293Y1126489D01*
Y1129028D01*
X275753Y1131568D01*
X268136D01*
X275753D01*
X278293Y1134107D01*
Y1136646D01*
X275753Y1139185D01*
X268136D01*
X285910Y1123950D02*
X290989D01*
X293528Y1126489D01*
Y1131568D01*
X290989Y1134107D01*
X285910D01*
X283371Y1131568D01*
Y1126489D01*
X285910Y1123950D01*
X301145Y1136646D02*
Y1134107D01*
X298606D01*
X303684D01*
X301145D01*
Y1126489D01*
X303684Y1123950D01*
X313841Y1136646D02*
Y1134107D01*
X311302D01*
X316380D01*
X313841D01*
Y1126489D01*
X316380Y1123950D01*
X326537D02*
X331615D01*
X334155Y1126489D01*
Y1131568D01*
X331615Y1134107D01*
X326537D01*
X323998Y1131568D01*
Y1126489D01*
X326537Y1123950D01*
X339233D02*
Y1134107D01*
X341772D01*
X344311Y1131568D01*
Y1123950D01*
Y1131568D01*
X346851Y1134107D01*
X349390Y1131568D01*
Y1123950D01*
X369703Y1139185D02*
Y1123950D01*
X379860D01*
X387477Y1134107D02*
X392556D01*
X395095Y1131568D01*
Y1123950D01*
X387477D01*
X384938Y1126489D01*
X387477Y1129028D01*
X395095D01*
X400173Y1134107D02*
Y1126489D01*
X402712Y1123950D01*
X410330D01*
Y1121411D01*
X407791Y1118872D01*
X405252D01*
X410330Y1123950D02*
Y1134107D01*
X423026Y1123950D02*
X417948D01*
X415408Y1126489D01*
Y1131568D01*
X417948Y1134107D01*
X423026D01*
X425565Y1131568D01*
Y1129028D01*
X415408D01*
X430643Y1134107D02*
Y1123950D01*
Y1129028D01*
X433182Y1131568D01*
X435722Y1134107D01*
X438261D01*
X268136Y1108705D02*
Y1093470D01*
X275753D01*
X278293Y1096009D01*
Y1098548D01*
X275753Y1101087D01*
X268136D01*
X275753D01*
X278293Y1103627D01*
Y1106166D01*
X275753Y1108705D01*
X268136D01*
X285910Y1093470D02*
X290989D01*
X293528Y1096009D01*
Y1101087D01*
X290989Y1103627D01*
X285910D01*
X283371Y1101087D01*
Y1096009D01*
X285910Y1093470D01*
X301145Y1106166D02*
Y1103627D01*
X298606D01*
X303684D01*
X301145D01*
Y1096009D01*
X303684Y1093470D01*
X313841Y1106166D02*
Y1103627D01*
X311302D01*
X316380D01*
X313841D01*
Y1096009D01*
X316380Y1093470D01*
X326537D02*
X331615D01*
X334155Y1096009D01*
Y1101087D01*
X331615Y1103627D01*
X326537D01*
X323998Y1101087D01*
Y1096009D01*
X326537Y1093470D01*
X339233D02*
Y1103627D01*
X341772D01*
X344311Y1101087D01*
Y1093470D01*
Y1101087D01*
X346851Y1103627D01*
X349390Y1101087D01*
Y1093470D01*
X379860Y1106166D02*
X377321Y1108705D01*
X372242D01*
X369703Y1106166D01*
Y1103627D01*
X372242Y1101087D01*
X377321D01*
X379860Y1098548D01*
Y1096009D01*
X377321Y1093470D01*
X372242D01*
X369703Y1096009D01*
X387477Y1093470D02*
X392556D01*
X395095Y1096009D01*
Y1101087D01*
X392556Y1103627D01*
X387477D01*
X384938Y1101087D01*
Y1096009D01*
X387477Y1093470D01*
X400173D02*
X405252D01*
X402712D01*
Y1108705D01*
X400173D01*
X423026D02*
Y1093470D01*
X415408D01*
X412869Y1096009D01*
Y1101087D01*
X415408Y1103627D01*
X423026D01*
X435722Y1093470D02*
X430643D01*
X428104Y1096009D01*
Y1101087D01*
X430643Y1103627D01*
X435722D01*
X438261Y1101087D01*
Y1098548D01*
X428104D01*
X443339Y1103627D02*
Y1093470D01*
Y1098548D01*
X445878Y1101087D01*
X448418Y1103627D01*
X450957D01*
X268136Y1078225D02*
Y1062990D01*
X275753D01*
X278293Y1065529D01*
Y1068068D01*
X275753Y1070608D01*
X268136D01*
X275753D01*
X278293Y1073147D01*
Y1075686D01*
X275753Y1078225D01*
X268136D01*
X285910Y1062990D02*
X290989D01*
X293528Y1065529D01*
Y1070608D01*
X290989Y1073147D01*
X285910D01*
X283371Y1070608D01*
Y1065529D01*
X285910Y1062990D01*
X301145Y1075686D02*
Y1073147D01*
X298606D01*
X303684D01*
X301145D01*
Y1065529D01*
X303684Y1062990D01*
X313841Y1075686D02*
Y1073147D01*
X311302D01*
X316380D01*
X313841D01*
Y1065529D01*
X316380Y1062990D01*
X326537D02*
X331615D01*
X334155Y1065529D01*
Y1070608D01*
X331615Y1073147D01*
X326537D01*
X323998Y1070608D01*
Y1065529D01*
X326537Y1062990D01*
X339233D02*
Y1073147D01*
X341772D01*
X344311Y1070608D01*
Y1062990D01*
Y1070608D01*
X346851Y1073147D01*
X349390Y1070608D01*
Y1062990D01*
X377321Y1078225D02*
X372242D01*
X369703Y1075686D01*
Y1065529D01*
X372242Y1062990D01*
X377321D01*
X379860Y1065529D01*
Y1075686D01*
X377321Y1078225D01*
X384938Y1073147D02*
X390017Y1062990D01*
X395095Y1073147D01*
X407791Y1062990D02*
X402712D01*
X400173Y1065529D01*
Y1070608D01*
X402712Y1073147D01*
X407791D01*
X410330Y1070608D01*
Y1068068D01*
X400173D01*
X415408Y1073147D02*
Y1062990D01*
Y1068068D01*
X417948Y1070608D01*
X420487Y1073147D01*
X423026D01*
X430643Y1062990D02*
X435722D01*
X433182D01*
Y1078225D01*
X430643D01*
X445878Y1073147D02*
X450957D01*
X453496Y1070608D01*
Y1062990D01*
X445878D01*
X443339Y1065529D01*
X445878Y1068068D01*
X453496D01*
X458574Y1073147D02*
Y1065529D01*
X461114Y1062990D01*
X468731D01*
Y1060451D01*
X466192Y1057912D01*
X463653D01*
X468731Y1062990D02*
Y1073147D01*
X268136Y1276350D02*
Y1291585D01*
X278293Y1276350D01*
Y1291585D01*
X285910Y1286507D02*
X290989D01*
X293528Y1283967D01*
Y1276350D01*
X285910D01*
X283371Y1278889D01*
X285910Y1281428D01*
X293528D01*
X298606Y1276350D02*
Y1286507D01*
X301145D01*
X303684Y1283967D01*
Y1276350D01*
Y1283967D01*
X306224Y1286507D01*
X308763Y1283967D01*
Y1276350D01*
X321459D02*
X316380D01*
X313841Y1278889D01*
Y1283967D01*
X316380Y1286507D01*
X321459D01*
X323998Y1283967D01*
Y1281428D01*
X313841D01*
X164018Y1184910D02*
X169097D01*
X166557D01*
Y1200145D01*
X164018Y1197606D01*
X174175Y1123950D02*
X164018D01*
X174175Y1134107D01*
Y1136646D01*
X171636Y1139185D01*
X166557D01*
X164018Y1136646D01*
Y1291585D02*
Y1276350D01*
X174175D01*
X181792Y1286507D02*
X186871D01*
X189410Y1283967D01*
Y1276350D01*
X181792D01*
X179253Y1278889D01*
X181792Y1281428D01*
X189410D01*
X194488Y1286507D02*
Y1278889D01*
X197027Y1276350D01*
X204645D01*
Y1273811D01*
X202106Y1271272D01*
X199567D01*
X204645Y1276350D02*
Y1286507D01*
X217341Y1276350D02*
X212262D01*
X209723Y1278889D01*
Y1283967D01*
X212262Y1286507D01*
X217341D01*
X219880Y1283967D01*
Y1281428D01*
X209723D01*
X224958Y1286507D02*
Y1276350D01*
Y1281428D01*
X227498Y1283967D01*
X230037Y1286507D01*
X232576D01*
D62*
X1299094Y1055370D02*
Y1299210D01*
X1014695Y1238250D02*
X1299094D01*
X1014695Y1207770D02*
X1299094D01*
X1014695Y1177290D02*
X1299094D01*
X1014695Y1146810D02*
X1299094D01*
X1014695Y1116330D02*
X1299094D01*
X1014695Y1085850D02*
X1299094D01*
X1014695Y1055370D02*
X1299094D01*
X1014695D02*
Y1299210D01*
X869950Y1238250D02*
X1014695D01*
X869950Y1207770D02*
X1014695D01*
X869950Y1177290D02*
X1014695D01*
X869950Y1146810D02*
X1014695D01*
X869950Y1116330D02*
X1014695D01*
X869950Y1085850D02*
X1014695D01*
X869950Y1055370D02*
X1014695D01*
X869950D02*
Y1299210D01*
X704892Y1238250D02*
X869950D01*
X704892Y1207770D02*
X869950D01*
X704892Y1177290D02*
X869950D01*
X704892Y1146810D02*
X869950D01*
X704892Y1116330D02*
X869950D01*
X704892Y1085850D02*
X869950D01*
X704892Y1055370D02*
X869950D01*
X704892D02*
Y1299210D01*
X486511Y1238250D02*
X704892D01*
X486511Y1207770D02*
X704892D01*
X486511Y1177290D02*
X704892D01*
X486511Y1146810D02*
X704892D01*
X486511Y1116330D02*
X704892D01*
X486511Y1085850D02*
X704892D01*
X486511Y1055370D02*
X704892D01*
X486511D02*
Y1299210D01*
X250356Y1238250D02*
X486511D01*
X250356Y1207770D02*
X486511D01*
X250356Y1177290D02*
X486511D01*
X250356Y1146810D02*
X486511D01*
X250356Y1116330D02*
X486511D01*
X250356Y1085850D02*
X486511D01*
X250356Y1055370D02*
X486511D01*
X250356D02*
Y1299210D01*
X146238Y1238250D02*
X250356D01*
X146238Y1207770D02*
X250356D01*
X146238Y1177290D02*
X250356D01*
X146238Y1146810D02*
X250356D01*
X146238Y1116330D02*
X250356D01*
X146238Y1085850D02*
X250356D01*
X146238Y1055370D02*
X250356D01*
X146238D02*
Y1299210D01*
X1299094D01*
X146238Y1268730D02*
X1299094D01*
D63*
X1014695Y1258651D02*
X1024774Y1268730D01*
X1014695Y1243410D02*
X1040014Y1268730D01*
X1024774Y1238250D02*
X1055254Y1268730D01*
X1040014Y1238250D02*
X1070494Y1268730D01*
X1055254Y1238250D02*
X1085734Y1268730D01*
X1070494Y1238250D02*
X1100974Y1268730D01*
X1085734Y1238250D02*
X1116214Y1268730D01*
X1100974Y1238250D02*
X1131454Y1268730D01*
X1116214Y1238250D02*
X1146694Y1268730D01*
X1131454Y1238250D02*
X1161934Y1268730D01*
X1146694Y1238250D02*
X1177174Y1268730D01*
X1161934Y1238250D02*
X1192414Y1268730D01*
X1177174Y1238250D02*
X1207654Y1268730D01*
X1192414Y1238250D02*
X1222894Y1268730D01*
X1207654Y1238250D02*
X1238134Y1268730D01*
X1222894Y1238250D02*
X1253374Y1268730D01*
X1238134Y1238250D02*
X1268614Y1268730D01*
X1253374Y1238250D02*
X1283854Y1268730D01*
X1268614Y1238250D02*
X1299094Y1268730D01*
X1283854Y1238250D02*
X1299094Y1253490D01*
X1014695Y1228170D02*
X1024774Y1238250D01*
X1014695Y1212931D02*
X1040014Y1238250D01*
X1024774Y1207770D02*
X1055254Y1238250D01*
X1040014Y1207770D02*
X1070494Y1238250D01*
X1055254Y1207770D02*
X1085734Y1238250D01*
X1070494Y1207770D02*
X1100974Y1238250D01*
X1085734Y1207770D02*
X1116214Y1238250D01*
X1100974Y1207770D02*
X1131454Y1238250D01*
X1116214Y1207770D02*
X1146694Y1238250D01*
X1131454Y1207770D02*
X1161934Y1238250D01*
X1146694Y1207770D02*
X1177174Y1238250D01*
X1161934Y1207770D02*
X1192414Y1238250D01*
X1177174Y1207770D02*
X1207654Y1238250D01*
X1192414Y1207770D02*
X1222894Y1238250D01*
X1207654Y1207770D02*
X1238134Y1238250D01*
X1222894Y1207770D02*
X1253374Y1238250D01*
X1238134Y1207770D02*
X1268614Y1238250D01*
X1253374Y1207770D02*
X1283854Y1238250D01*
X1268614Y1207770D02*
X1299094Y1238250D01*
X1283854Y1207770D02*
X1299094Y1223010D01*
X1014695Y1197691D02*
X1024774Y1207770D01*
X1014695Y1182450D02*
X1040014Y1207770D01*
X1024774Y1177290D02*
X1055254Y1207770D01*
X1040014Y1177290D02*
X1070494Y1207770D01*
X1055254Y1177290D02*
X1085734Y1207770D01*
X1070494Y1177290D02*
X1100974Y1207770D01*
X1085734Y1177290D02*
X1116214Y1207770D01*
X1100974Y1177290D02*
X1131454Y1207770D01*
X1116214Y1177290D02*
X1146694Y1207770D01*
X1131454Y1177290D02*
X1161934Y1207770D01*
X1146694Y1177290D02*
X1177174Y1207770D01*
X1161934Y1177290D02*
X1192414Y1207770D01*
X1177174Y1177290D02*
X1207654Y1207770D01*
X1192414Y1177290D02*
X1222894Y1207770D01*
X1207654Y1177290D02*
X1238134Y1207770D01*
X1222894Y1177290D02*
X1253374Y1207770D01*
X1238134Y1177290D02*
X1268614Y1207770D01*
X1253374Y1177290D02*
X1283854Y1207770D01*
X1268614Y1177290D02*
X1299094Y1207770D01*
X1283854Y1177290D02*
X1299094Y1192530D01*
X1014695Y1167210D02*
X1024774Y1177290D01*
X1014695Y1151971D02*
X1040014Y1177290D01*
X1024774Y1146810D02*
X1055254Y1177290D01*
X1040014Y1146810D02*
X1070494Y1177290D01*
X1055254Y1146810D02*
X1085734Y1177290D01*
X1070494Y1146810D02*
X1100974Y1177290D01*
X1085734Y1146810D02*
X1116214Y1177290D01*
X1100974Y1146810D02*
X1131454Y1177290D01*
X1116214Y1146810D02*
X1146694Y1177290D01*
X1131454Y1146810D02*
X1161934Y1177290D01*
X1146694Y1146810D02*
X1177174Y1177290D01*
X1161934Y1146810D02*
X1192414Y1177290D01*
X1177174Y1146810D02*
X1207654Y1177290D01*
X1192414Y1146810D02*
X1222894Y1177290D01*
X1207654Y1146810D02*
X1238134Y1177290D01*
X1222894Y1146810D02*
X1253374Y1177290D01*
X1238134Y1146810D02*
X1268614Y1177290D01*
X1253374Y1146810D02*
X1283854Y1177290D01*
X1268614Y1146810D02*
X1299094Y1177290D01*
X1283854Y1146810D02*
X1299094Y1162050D01*
X1014695Y1136730D02*
X1024774Y1146810D01*
X1014695Y1121490D02*
X1040014Y1146810D01*
X1024774Y1116330D02*
X1055254Y1146810D01*
X1040014Y1116330D02*
X1070494Y1146810D01*
X1055254Y1116330D02*
X1085734Y1146810D01*
X1070494Y1116330D02*
X1100974Y1146810D01*
X1085734Y1116330D02*
X1116214Y1146810D01*
X1100974Y1116330D02*
X1131454Y1146810D01*
X1116214Y1116330D02*
X1146694Y1146810D01*
X1131454Y1116330D02*
X1161934Y1146810D01*
X1146694Y1116330D02*
X1177174Y1146810D01*
X1161934Y1116330D02*
X1192414Y1146810D01*
X1177174Y1116330D02*
X1207654Y1146810D01*
X1192414Y1116330D02*
X1222894Y1146810D01*
X1207654Y1116330D02*
X1238134Y1146810D01*
X1222894Y1116330D02*
X1253374Y1146810D01*
X1238134Y1116330D02*
X1268614Y1146810D01*
X1253374Y1116330D02*
X1283854Y1146810D01*
X1268614Y1116330D02*
X1299094Y1146810D01*
X1283854Y1116330D02*
X1299094Y1131570D01*
X1014695Y1106251D02*
X1024774Y1116330D01*
X1014695Y1091011D02*
X1040014Y1116330D01*
X1024774Y1085850D02*
X1055254Y1116330D01*
X1040014Y1085850D02*
X1070494Y1116330D01*
X1055254Y1085850D02*
X1085734Y1116330D01*
X1070494Y1085850D02*
X1100974Y1116330D01*
X1085734Y1085850D02*
X1116214Y1116330D01*
X1100974Y1085850D02*
X1131454Y1116330D01*
X1116214Y1085850D02*
X1146694Y1116330D01*
X1131454Y1085850D02*
X1161934Y1116330D01*
X1146694Y1085850D02*
X1177174Y1116330D01*
X1161934Y1085850D02*
X1192414Y1116330D01*
X1177174Y1085850D02*
X1207654Y1116330D01*
X1192414Y1085850D02*
X1222894Y1116330D01*
X1207654Y1085850D02*
X1238134Y1116330D01*
X1222894Y1085850D02*
X1253374Y1116330D01*
X1238134Y1085850D02*
X1268614Y1116330D01*
X1253374Y1085850D02*
X1283854Y1116330D01*
X1268614Y1085850D02*
X1299094Y1116330D01*
X1283854Y1085850D02*
X1299094Y1101090D01*
X1014695Y1075770D02*
X1024774Y1085850D01*
X1014695Y1060530D02*
X1040014Y1085850D01*
X1024774Y1055370D02*
X1055254Y1085850D01*
X1040014Y1055370D02*
X1070494Y1085850D01*
X1055254Y1055370D02*
X1085734Y1085850D01*
X1070494Y1055370D02*
X1100974Y1085850D01*
X1085734Y1055370D02*
X1116214Y1085850D01*
X1100974Y1055370D02*
X1131454Y1085850D01*
X1116214Y1055370D02*
X1146694Y1085850D01*
X1131454Y1055370D02*
X1161934Y1085850D01*
X1146694Y1055370D02*
X1177174Y1085850D01*
X1161934Y1055370D02*
X1192414Y1085850D01*
X1177174Y1055370D02*
X1207654Y1085850D01*
X1192414Y1055370D02*
X1222894Y1085850D01*
X1207654Y1055370D02*
X1238134Y1085850D01*
X1222894Y1055370D02*
X1253374Y1085850D01*
X1238134Y1055370D02*
X1268614Y1085850D01*
X1253374Y1055370D02*
X1283854Y1085850D01*
X1268614Y1055370D02*
X1299094Y1085850D01*
X1283854Y1055370D02*
X1299094Y1070610D01*
M02*
