G04*
G04 #@! TF.GenerationSoftware,Altium Limited,Altium Designer,22.3.1 (43)*
G04*
G04 Layer_Physical_Order=2*
G04 Layer_Color=16711680*
%FSLAX44Y44*%
%MOMM*%
G71*
G04*
G04 #@! TF.SameCoordinates,C52AF181-6C1B-4B2A-911A-4B769AFB4D18*
G04*
G04*
G04 #@! TF.FilePolarity,Positive*
G04*
G01*
G75*
%ADD13C,0.2540*%
%ADD56C,0.1520*%
%ADD57C,1.7000*%
%ADD58R,1.7000X1.7000*%
%ADD59R,1.7000X1.7000*%
%ADD60C,0.6000*%
G36*
X1074990Y911371D02*
X1039328D01*
X1038842Y912544D01*
X1039221Y912924D01*
X1040739Y915552D01*
X1041524Y918483D01*
Y921517D01*
X1040739Y924448D01*
X1039221Y927076D01*
X1037076Y929221D01*
X1034448Y930739D01*
X1031517Y931524D01*
X1028483D01*
X1025552Y930739D01*
X1022924Y929221D01*
X1020779Y927076D01*
X1019261Y924448D01*
X1018476Y921517D01*
Y918483D01*
X1019261Y915552D01*
X1020779Y912924D01*
X1021158Y912544D01*
X1020672Y911371D01*
X1008643D01*
X1008157Y912544D01*
X1008834Y913221D01*
X1010288Y915739D01*
X1011040Y918547D01*
Y918730D01*
X988960D01*
Y918547D01*
X989712Y915739D01*
X991166Y913221D01*
X991843Y912544D01*
X991357Y911371D01*
X970769D01*
X946150Y935990D01*
X436880D01*
X412261Y911371D01*
X398643D01*
X398157Y912544D01*
X398834Y913221D01*
X400288Y915739D01*
X401040Y918547D01*
Y918730D01*
X378960D01*
Y918547D01*
X379712Y915739D01*
X381166Y913221D01*
X381843Y912544D01*
X381357Y911371D01*
X369328D01*
X368842Y912544D01*
X369221Y912924D01*
X370739Y915552D01*
X371524Y918483D01*
Y921517D01*
X370739Y924448D01*
X369221Y927076D01*
X367076Y929221D01*
X364448Y930739D01*
X361517Y931524D01*
X358483D01*
X355552Y930739D01*
X352924Y929221D01*
X350779Y927076D01*
X349261Y924448D01*
X348476Y921517D01*
Y918483D01*
X349261Y915552D01*
X350779Y912924D01*
X351158Y912544D01*
X350672Y911371D01*
X315010D01*
Y960410D01*
X1074990D01*
Y911371D01*
D02*
G37*
G36*
X969603Y910205D02*
X970769Y909722D01*
X991357D01*
X991660Y909847D01*
X991988D01*
X992220Y910079D01*
X992523Y910205D01*
X992649Y910508D01*
X992881Y910740D01*
X993011Y911054D01*
X993071Y911121D01*
X994540Y911578D01*
X996131Y910659D01*
X998680Y909976D01*
X1001320D01*
X1003869Y910659D01*
X1005460Y911578D01*
X1006929Y911121D01*
X1006989Y911054D01*
X1007119Y910740D01*
X1007351Y910508D01*
X1007477Y910205D01*
X1007780Y910079D01*
X1008012Y909847D01*
X1008340D01*
X1008643Y909722D01*
X1020672D01*
X1020975Y909847D01*
X1021303D01*
X1021535Y910079D01*
X1021839Y910205D01*
X1022004Y910292D01*
X1022919Y910585D01*
X1023459Y910470D01*
X1025552Y909261D01*
X1028483Y908476D01*
X1031517D01*
X1034448Y909261D01*
X1036541Y910470D01*
X1037081Y910585D01*
X1037996Y910292D01*
X1038161Y910205D01*
X1038465Y910079D01*
X1038697Y909847D01*
X1039025D01*
X1039328Y909722D01*
X1074990D01*
Y679590D01*
X315010D01*
Y909722D01*
X350672D01*
X350975Y909847D01*
X351303D01*
X351535Y910079D01*
X351838Y910205D01*
X352004Y910292D01*
X352919Y910585D01*
X353459Y910470D01*
X355552Y909261D01*
X358483Y908476D01*
X361517D01*
X364448Y909261D01*
X366541Y910470D01*
X367081Y910585D01*
X367996Y910292D01*
X368162Y910205D01*
X368465Y910079D01*
X368697Y909847D01*
X369025D01*
X369328Y909722D01*
X381357D01*
X381660Y909847D01*
X381988D01*
X382220Y910079D01*
X382523Y910205D01*
X382649Y910508D01*
X382881Y910740D01*
X383011Y911054D01*
X383071Y911121D01*
X384540Y911578D01*
X386131Y910659D01*
X388680Y909976D01*
X391320D01*
X393869Y910659D01*
X395460Y911578D01*
X396929Y911121D01*
X396989Y911054D01*
X397119Y910740D01*
X397351Y910508D01*
X397477Y910205D01*
X397780Y910079D01*
X398012Y909847D01*
X398340D01*
X398643Y909722D01*
X412261D01*
X413428Y910205D01*
X437563Y934340D01*
X945467D01*
X969603Y910205D01*
D02*
G37*
%LPC*%
G36*
X1001453Y931040D02*
X1001270D01*
Y921270D01*
X1011040D01*
Y921453D01*
X1010288Y924261D01*
X1008834Y926779D01*
X1006779Y928834D01*
X1004261Y930288D01*
X1001453Y931040D01*
D02*
G37*
G36*
X998730D02*
X998547D01*
X995739Y930288D01*
X993221Y928834D01*
X991166Y926779D01*
X989712Y924261D01*
X988960Y921453D01*
Y921270D01*
X998730D01*
Y931040D01*
D02*
G37*
G36*
X391453D02*
X391270D01*
Y921270D01*
X401040D01*
Y921453D01*
X400288Y924261D01*
X398834Y926779D01*
X396779Y928834D01*
X394261Y930288D01*
X391453Y931040D01*
D02*
G37*
G36*
X388730D02*
X388547D01*
X385739Y930288D01*
X383221Y928834D01*
X381166Y926779D01*
X379712Y924261D01*
X378960Y921453D01*
Y921270D01*
X388730D01*
Y931040D01*
D02*
G37*
G36*
X1001320Y890024D02*
X998680D01*
X996131Y889341D01*
X993845Y888021D01*
X991979Y886155D01*
X990659Y883869D01*
X989976Y881320D01*
Y878680D01*
X990659Y876131D01*
X991979Y873845D01*
X993845Y871979D01*
X996131Y870659D01*
X998680Y869976D01*
X1001320D01*
X1003869Y870659D01*
X1006155Y871979D01*
X1008021Y873845D01*
X1009341Y876131D01*
X1010024Y878680D01*
Y881320D01*
X1009341Y883869D01*
X1008021Y886155D01*
X1006155Y888021D01*
X1003869Y889341D01*
X1001320Y890024D01*
D02*
G37*
G36*
X391320D02*
X388680D01*
X386131Y889341D01*
X383845Y888021D01*
X381979Y886155D01*
X380659Y883869D01*
X379976Y881320D01*
Y878680D01*
X380659Y876131D01*
X381979Y873845D01*
X383845Y871979D01*
X386131Y870659D01*
X388680Y869976D01*
X391320D01*
X393869Y870659D01*
X396155Y871979D01*
X398021Y873845D01*
X399341Y876131D01*
X400024Y878680D01*
Y881320D01*
X399341Y883869D01*
X398021Y886155D01*
X396155Y888021D01*
X393869Y889341D01*
X391320Y890024D01*
D02*
G37*
G36*
X1031517Y891524D02*
X1028483D01*
X1025552Y890739D01*
X1022924Y889221D01*
X1020779Y887076D01*
X1019261Y884448D01*
X1018476Y881517D01*
Y878483D01*
X1019261Y875552D01*
X1020779Y872924D01*
X1022924Y870779D01*
X1025552Y869261D01*
X1028483Y868476D01*
X1031517D01*
X1034448Y869261D01*
X1037076Y870779D01*
X1039221Y872924D01*
X1040739Y875552D01*
X1041524Y878483D01*
Y881517D01*
X1040739Y884448D01*
X1039221Y887076D01*
X1037076Y889221D01*
X1034448Y890739D01*
X1031517Y891524D01*
D02*
G37*
G36*
X361517D02*
X358483D01*
X355552Y890739D01*
X352924Y889221D01*
X350779Y887076D01*
X349261Y884448D01*
X348476Y881517D01*
Y878483D01*
X349261Y875552D01*
X350779Y872924D01*
X352924Y870779D01*
X355552Y869261D01*
X358483Y868476D01*
X361517D01*
X364448Y869261D01*
X367076Y870779D01*
X369221Y872924D01*
X370739Y875552D01*
X371524Y878483D01*
Y881517D01*
X370739Y884448D01*
X369221Y887076D01*
X367076Y889221D01*
X364448Y890739D01*
X361517Y891524D01*
D02*
G37*
G36*
X1001320Y850024D02*
X998680D01*
X996131Y849341D01*
X993845Y848021D01*
X991979Y846155D01*
X990659Y843869D01*
X989976Y841320D01*
Y838680D01*
X990659Y836131D01*
X991979Y833845D01*
X993845Y831979D01*
X996131Y830659D01*
X998680Y829976D01*
X1001320D01*
X1003869Y830659D01*
X1006155Y831979D01*
X1008021Y833845D01*
X1009341Y836131D01*
X1010024Y838680D01*
Y841320D01*
X1009341Y843869D01*
X1008021Y846155D01*
X1006155Y848021D01*
X1003869Y849341D01*
X1001320Y850024D01*
D02*
G37*
G36*
X391320D02*
X388680D01*
X386131Y849341D01*
X383845Y848021D01*
X381979Y846155D01*
X380659Y843869D01*
X379976Y841320D01*
Y838680D01*
X380659Y836131D01*
X381979Y833845D01*
X383845Y831979D01*
X386131Y830659D01*
X388680Y829976D01*
X391320D01*
X393869Y830659D01*
X396155Y831979D01*
X398021Y833845D01*
X399341Y836131D01*
X400024Y838680D01*
Y841320D01*
X399341Y843869D01*
X398021Y846155D01*
X396155Y848021D01*
X393869Y849341D01*
X391320Y850024D01*
D02*
G37*
G36*
X1031517Y851524D02*
X1028483D01*
X1025552Y850739D01*
X1022924Y849221D01*
X1020779Y847076D01*
X1019261Y844448D01*
X1018476Y841517D01*
Y838483D01*
X1019261Y835552D01*
X1020779Y832924D01*
X1022924Y830779D01*
X1025552Y829261D01*
X1028483Y828476D01*
X1031517D01*
X1034448Y829261D01*
X1037076Y830779D01*
X1039221Y832924D01*
X1040739Y835552D01*
X1041524Y838483D01*
Y841517D01*
X1040739Y844448D01*
X1039221Y847076D01*
X1037076Y849221D01*
X1034448Y850739D01*
X1031517Y851524D01*
D02*
G37*
G36*
X361517D02*
X358483D01*
X355552Y850739D01*
X352924Y849221D01*
X350779Y847076D01*
X349261Y844448D01*
X348476Y841517D01*
Y838483D01*
X349261Y835552D01*
X350779Y832924D01*
X352924Y830779D01*
X355552Y829261D01*
X358483Y828476D01*
X361517D01*
X364448Y829261D01*
X367076Y830779D01*
X369221Y832924D01*
X370739Y835552D01*
X371524Y838483D01*
Y841517D01*
X370739Y844448D01*
X369221Y847076D01*
X367076Y849221D01*
X364448Y850739D01*
X361517Y851524D01*
D02*
G37*
G36*
X622523Y862545D02*
X620723D01*
X619060Y861857D01*
X617788Y860584D01*
X617099Y858921D01*
Y857122D01*
X617788Y855459D01*
X618774Y854472D01*
Y843298D01*
X618774Y843298D01*
X618991Y842208D01*
X619609Y841284D01*
X631506Y829387D01*
Y827991D01*
X632195Y826329D01*
X633467Y825056D01*
X635130Y824367D01*
X636930D01*
X638593Y825056D01*
X639865Y826329D01*
X640554Y827991D01*
Y829791D01*
X639865Y831454D01*
X638593Y832727D01*
X636930Y833415D01*
X635535D01*
X624472Y844478D01*
Y854472D01*
X625458Y855459D01*
X626147Y857122D01*
Y858921D01*
X625458Y860584D01*
X624186Y861857D01*
X622523Y862545D01*
D02*
G37*
G36*
X754453Y862953D02*
X753287Y862469D01*
X753089Y862272D01*
X727065D01*
X725898Y861789D01*
X724004Y859894D01*
X723520Y858727D01*
Y821690D01*
X724004Y820524D01*
X725984Y818544D01*
X727150Y818061D01*
X754997D01*
X756164Y818544D01*
X758070Y820450D01*
X758553Y821616D01*
Y858852D01*
X758070Y860019D01*
X755619Y862469D01*
X754453Y862953D01*
D02*
G37*
G36*
X1001320Y810024D02*
X998680D01*
X996131Y809341D01*
X993845Y808021D01*
X991979Y806155D01*
X990659Y803869D01*
X989976Y801320D01*
Y798680D01*
X990659Y796131D01*
X991979Y793845D01*
X993845Y791979D01*
X996131Y790659D01*
X998680Y789976D01*
X1001320D01*
X1003869Y790659D01*
X1006155Y791979D01*
X1008021Y793845D01*
X1009341Y796131D01*
X1010024Y798680D01*
Y801320D01*
X1009341Y803869D01*
X1008021Y806155D01*
X1006155Y808021D01*
X1003869Y809341D01*
X1001320Y810024D01*
D02*
G37*
G36*
X391320D02*
X388680D01*
X386131Y809341D01*
X383845Y808021D01*
X381979Y806155D01*
X380659Y803869D01*
X379976Y801320D01*
Y798680D01*
X380659Y796131D01*
X381979Y793845D01*
X383845Y791979D01*
X386131Y790659D01*
X388680Y789976D01*
X391320D01*
X393869Y790659D01*
X396155Y791979D01*
X398021Y793845D01*
X399341Y796131D01*
X400024Y798680D01*
Y801320D01*
X399341Y803869D01*
X398021Y806155D01*
X396155Y808021D01*
X393869Y809341D01*
X391320Y810024D01*
D02*
G37*
G36*
X1031517Y811524D02*
X1028483D01*
X1025552Y810739D01*
X1022924Y809221D01*
X1020779Y807076D01*
X1019261Y804448D01*
X1018476Y801517D01*
Y798483D01*
X1019261Y795552D01*
X1020779Y792924D01*
X1022924Y790779D01*
X1025552Y789261D01*
X1028483Y788476D01*
X1031517D01*
X1034448Y789261D01*
X1037076Y790779D01*
X1039221Y792924D01*
X1040739Y795552D01*
X1041524Y798483D01*
Y801517D01*
X1040739Y804448D01*
X1039221Y807076D01*
X1037076Y809221D01*
X1034448Y810739D01*
X1031517Y811524D01*
D02*
G37*
G36*
X361517D02*
X358483D01*
X355552Y810739D01*
X352924Y809221D01*
X350779Y807076D01*
X349261Y804448D01*
X348476Y801517D01*
Y798483D01*
X349261Y795552D01*
X350779Y792924D01*
X352924Y790779D01*
X355552Y789261D01*
X358483Y788476D01*
X361517D01*
X364448Y789261D01*
X367076Y790779D01*
X369221Y792924D01*
X370739Y795552D01*
X371524Y798483D01*
Y801517D01*
X370739Y804448D01*
X369221Y807076D01*
X367076Y809221D01*
X364448Y810739D01*
X361517Y811524D01*
D02*
G37*
G36*
X658227Y797741D02*
X656427D01*
X654764Y797052D01*
X653492Y795779D01*
X652803Y794117D01*
Y792317D01*
X653492Y790654D01*
X654764Y789381D01*
X656427Y788693D01*
X657075Y787722D01*
X656913Y787330D01*
Y785530D01*
X657602Y783867D01*
X658874Y782595D01*
X660537Y781906D01*
X662337D01*
X662571Y782003D01*
X663900Y780673D01*
X664656Y780169D01*
X665113Y780078D01*
X665799Y779147D01*
X665926Y778721D01*
X665601Y777936D01*
Y776136D01*
X666289Y774473D01*
X667562Y773201D01*
X669225Y772512D01*
X671025D01*
X672687Y773201D01*
X673960Y774473D01*
X674057Y774707D01*
X699009D01*
X702037Y771680D01*
X702792Y771175D01*
X703683Y770998D01*
X706909D01*
X707006Y770764D01*
X708279Y769492D01*
X709941Y768803D01*
X711741D01*
X713404Y769492D01*
X714676Y770764D01*
X715365Y772427D01*
Y774227D01*
X714676Y775890D01*
X713472Y777094D01*
X714666Y778288D01*
X715354Y779951D01*
Y781751D01*
X714666Y783413D01*
X713393Y784686D01*
X711730Y785375D01*
X711255D01*
X710081Y785786D01*
X710081Y786548D01*
Y787586D01*
X709392Y789249D01*
X708120Y790521D01*
X706457Y791210D01*
X704657D01*
X702995Y790521D01*
X701722Y789249D01*
X701625Y789015D01*
X669618D01*
X663770Y794863D01*
X663014Y795368D01*
X662123Y795545D01*
X661259D01*
X661162Y795779D01*
X659889Y797052D01*
X658227Y797741D01*
D02*
G37*
G36*
X391453Y771040D02*
X391270D01*
Y761270D01*
X401040D01*
Y761453D01*
X400288Y764261D01*
X398834Y766779D01*
X396779Y768834D01*
X394261Y770288D01*
X391453Y771040D01*
D02*
G37*
G36*
X388730D02*
X388547D01*
X385739Y770288D01*
X383221Y768834D01*
X381166Y766779D01*
X379712Y764261D01*
X378960Y761453D01*
Y761270D01*
X388730D01*
Y771040D01*
D02*
G37*
G36*
X1001453D02*
X1001270D01*
Y761270D01*
X1011040D01*
Y761453D01*
X1010288Y764261D01*
X1008834Y766779D01*
X1006779Y768834D01*
X1004261Y770288D01*
X1001453Y771040D01*
D02*
G37*
G36*
X998730D02*
X998547D01*
X995739Y770288D01*
X993221Y768834D01*
X991166Y766779D01*
X989712Y764261D01*
X988960Y761453D01*
Y761270D01*
X998730D01*
Y771040D01*
D02*
G37*
G36*
X1011040Y758730D02*
X1001270D01*
Y748960D01*
X1001453D01*
X1004261Y749712D01*
X1006779Y751166D01*
X1008834Y753221D01*
X1010288Y755739D01*
X1011040Y758547D01*
Y758730D01*
D02*
G37*
G36*
X998730D02*
X988960D01*
Y758547D01*
X989712Y755739D01*
X991166Y753221D01*
X993221Y751166D01*
X995739Y749712D01*
X998547Y748960D01*
X998730D01*
Y758730D01*
D02*
G37*
G36*
X401040Y758730D02*
X391270D01*
Y748960D01*
X391453D01*
X394261Y749712D01*
X396779Y751166D01*
X398834Y753221D01*
X400288Y755739D01*
X401040Y758547D01*
Y758730D01*
D02*
G37*
G36*
X388730D02*
X378960D01*
Y758547D01*
X379712Y755739D01*
X381166Y753221D01*
X383221Y751166D01*
X385739Y749712D01*
X388547Y748960D01*
X388730D01*
Y758730D01*
D02*
G37*
G36*
X1031517Y771524D02*
X1028483D01*
X1025552Y770739D01*
X1022924Y769221D01*
X1020779Y767076D01*
X1019261Y764448D01*
X1018476Y761517D01*
Y758483D01*
X1019261Y755552D01*
X1020779Y752924D01*
X1022924Y750779D01*
X1025552Y749261D01*
X1028483Y748476D01*
X1031517D01*
X1034448Y749261D01*
X1037076Y750779D01*
X1039221Y752924D01*
X1040739Y755552D01*
X1041524Y758483D01*
Y761517D01*
X1040739Y764448D01*
X1039221Y767076D01*
X1037076Y769221D01*
X1034448Y770739D01*
X1031517Y771524D01*
D02*
G37*
G36*
X361517D02*
X358483D01*
X355552Y770739D01*
X352924Y769221D01*
X350779Y767076D01*
X349261Y764448D01*
X348476Y761517D01*
Y758483D01*
X349261Y755552D01*
X350779Y752924D01*
X352924Y750779D01*
X355552Y749261D01*
X358483Y748476D01*
X361517D01*
X364448Y749261D01*
X367076Y750779D01*
X369221Y752924D01*
X370739Y755552D01*
X371524Y758483D01*
Y761517D01*
X370739Y764448D01*
X369221Y767076D01*
X367076Y769221D01*
X364448Y770739D01*
X361517Y771524D01*
D02*
G37*
G36*
X936734Y768075D02*
X916686D01*
Y748027D01*
X936734D01*
Y768075D01*
D02*
G37*
G36*
X902630D02*
X899990D01*
X897441Y767392D01*
X895155Y766072D01*
X893289Y764206D01*
X891969Y761920D01*
X891286Y759370D01*
Y756731D01*
X891969Y754182D01*
X893289Y751896D01*
X895155Y750030D01*
X897441Y748710D01*
X899990Y748027D01*
X902630D01*
X905179Y748710D01*
X907465Y750030D01*
X909331Y751896D01*
X910651Y754182D01*
X911334Y756731D01*
Y759370D01*
X910651Y761920D01*
X909331Y764206D01*
X907465Y766072D01*
X905179Y767392D01*
X902630Y768075D01*
D02*
G37*
G36*
X391453Y731040D02*
X391270D01*
Y721270D01*
X401040D01*
Y721453D01*
X400288Y724261D01*
X398834Y726779D01*
X396779Y728834D01*
X394261Y730288D01*
X391453Y731040D01*
D02*
G37*
G36*
X388730D02*
X388547D01*
X385739Y730288D01*
X383221Y728834D01*
X381166Y726779D01*
X379712Y724261D01*
X378960Y721453D01*
Y721270D01*
X388730D01*
Y731040D01*
D02*
G37*
G36*
X1001453D02*
X1001270D01*
Y721270D01*
X1011040D01*
Y721453D01*
X1010288Y724261D01*
X1008834Y726779D01*
X1006779Y728834D01*
X1004261Y730288D01*
X1001453Y731040D01*
D02*
G37*
G36*
X998730D02*
X998547D01*
X995739Y730288D01*
X993221Y728834D01*
X991166Y726779D01*
X989712Y724261D01*
X988960Y721453D01*
Y721270D01*
X998730D01*
Y731040D01*
D02*
G37*
G36*
X628514Y733924D02*
X608466D01*
Y713876D01*
X628514D01*
Y733924D01*
D02*
G37*
G36*
X594410D02*
X591770D01*
X589221Y733241D01*
X586935Y731921D01*
X585069Y730055D01*
X583749Y727769D01*
X583066Y725220D01*
Y722580D01*
X583749Y720031D01*
X585069Y717745D01*
X586935Y715879D01*
X589221Y714559D01*
X591770Y713876D01*
X594410D01*
X596959Y714559D01*
X599245Y715879D01*
X601111Y717745D01*
X602431Y720031D01*
X603114Y722580D01*
Y725220D01*
X602431Y727769D01*
X601111Y730055D01*
X599245Y731921D01*
X596959Y733241D01*
X594410Y733924D01*
D02*
G37*
G36*
X569010D02*
X566370D01*
X563821Y733241D01*
X561535Y731921D01*
X559669Y730055D01*
X558349Y727769D01*
X557666Y725220D01*
Y722580D01*
X558349Y720031D01*
X559669Y717745D01*
X561535Y715879D01*
X563821Y714559D01*
X566370Y713876D01*
X569010D01*
X571559Y714559D01*
X573845Y715879D01*
X575711Y717745D01*
X577031Y720031D01*
X577714Y722580D01*
Y725220D01*
X577031Y727769D01*
X575711Y730055D01*
X573845Y731921D01*
X571559Y733241D01*
X569010Y733924D01*
D02*
G37*
G36*
X543610D02*
X540970D01*
X538421Y733241D01*
X536135Y731921D01*
X534269Y730055D01*
X532949Y727769D01*
X532266Y725220D01*
Y722580D01*
X532949Y720031D01*
X534269Y717745D01*
X536135Y715879D01*
X538421Y714559D01*
X540970Y713876D01*
X543610D01*
X546159Y714559D01*
X548445Y715879D01*
X550311Y717745D01*
X551631Y720031D01*
X552314Y722580D01*
Y725220D01*
X551631Y727769D01*
X550311Y730055D01*
X548445Y731921D01*
X546159Y733241D01*
X543610Y733924D01*
D02*
G37*
G36*
X518210D02*
X515570D01*
X513021Y733241D01*
X510735Y731921D01*
X508869Y730055D01*
X507549Y727769D01*
X506866Y725220D01*
Y722580D01*
X507549Y720031D01*
X508869Y717745D01*
X510735Y715879D01*
X513021Y714559D01*
X515570Y713876D01*
X518210D01*
X520759Y714559D01*
X523045Y715879D01*
X524911Y717745D01*
X526231Y720031D01*
X526914Y722580D01*
Y725220D01*
X526231Y727769D01*
X524911Y730055D01*
X523045Y731921D01*
X520759Y733241D01*
X518210Y733924D01*
D02*
G37*
G36*
X492810D02*
X490170D01*
X487621Y733241D01*
X485335Y731921D01*
X483469Y730055D01*
X482149Y727769D01*
X481466Y725220D01*
Y722580D01*
X482149Y720031D01*
X483469Y717745D01*
X485335Y715879D01*
X487621Y714559D01*
X490170Y713876D01*
X492810D01*
X495359Y714559D01*
X497645Y715879D01*
X499511Y717745D01*
X500831Y720031D01*
X501514Y722580D01*
Y725220D01*
X500831Y727769D01*
X499511Y730055D01*
X497645Y731921D01*
X495359Y733241D01*
X492810Y733924D01*
D02*
G37*
G36*
X1011040Y718730D02*
X1001270D01*
Y708960D01*
X1001453D01*
X1004261Y709712D01*
X1006779Y711166D01*
X1008834Y713221D01*
X1010288Y715739D01*
X1011040Y718547D01*
Y718730D01*
D02*
G37*
G36*
X998730D02*
X988960D01*
Y718547D01*
X989712Y715739D01*
X991166Y713221D01*
X993221Y711166D01*
X995739Y709712D01*
X998547Y708960D01*
X998730D01*
Y718730D01*
D02*
G37*
G36*
X401040Y718730D02*
X391270D01*
Y708960D01*
X391453D01*
X394261Y709712D01*
X396779Y711166D01*
X398834Y713221D01*
X400288Y715739D01*
X401040Y718547D01*
Y718730D01*
D02*
G37*
G36*
X388730D02*
X378960D01*
Y718547D01*
X379712Y715739D01*
X381166Y713221D01*
X383221Y711166D01*
X385739Y709712D01*
X388547Y708960D01*
X388730D01*
Y718730D01*
D02*
G37*
G36*
X1031517Y731524D02*
X1028483D01*
X1025552Y730739D01*
X1022924Y729221D01*
X1020779Y727076D01*
X1019261Y724448D01*
X1018476Y721517D01*
Y718483D01*
X1019261Y715552D01*
X1020779Y712924D01*
X1022924Y710779D01*
X1025552Y709261D01*
X1028483Y708476D01*
X1031517D01*
X1034448Y709261D01*
X1037076Y710779D01*
X1039221Y712924D01*
X1040739Y715552D01*
X1041524Y718483D01*
Y721517D01*
X1040739Y724448D01*
X1039221Y727076D01*
X1037076Y729221D01*
X1034448Y730739D01*
X1031517Y731524D01*
D02*
G37*
G36*
X361517D02*
X358483D01*
X355552Y730739D01*
X352924Y729221D01*
X350779Y727076D01*
X349261Y724448D01*
X348476Y721517D01*
Y718483D01*
X349261Y715552D01*
X350779Y712924D01*
X352924Y710779D01*
X355552Y709261D01*
X358483Y708476D01*
X361517D01*
X364448Y709261D01*
X367076Y710779D01*
X369221Y712924D01*
X370739Y715552D01*
X371524Y718483D01*
Y721517D01*
X370739Y724448D01*
X369221Y727076D01*
X367076Y729221D01*
X364448Y730739D01*
X361517Y731524D01*
D02*
G37*
G36*
X594543Y709540D02*
X594360D01*
Y699770D01*
X604130D01*
Y699953D01*
X603378Y702761D01*
X601924Y705279D01*
X599869Y707334D01*
X597351Y708788D01*
X594543Y709540D01*
D02*
G37*
G36*
X591820D02*
X591637D01*
X588829Y708788D01*
X586311Y707334D01*
X584256Y705279D01*
X582802Y702761D01*
X582050Y699953D01*
Y699770D01*
X591820D01*
Y709540D01*
D02*
G37*
G36*
X543743D02*
X543560D01*
Y699770D01*
X553330D01*
Y699953D01*
X552578Y702761D01*
X551124Y705279D01*
X549069Y707334D01*
X546551Y708788D01*
X543743Y709540D01*
D02*
G37*
G36*
X541020D02*
X540837D01*
X538029Y708788D01*
X535511Y707334D01*
X533456Y705279D01*
X532002Y702761D01*
X531250Y699953D01*
Y699770D01*
X541020D01*
Y709540D01*
D02*
G37*
G36*
X492943D02*
X492760D01*
Y699770D01*
X502530D01*
Y699953D01*
X501778Y702761D01*
X500324Y705279D01*
X498269Y707334D01*
X495751Y708788D01*
X492943Y709540D01*
D02*
G37*
G36*
X490220D02*
X490037D01*
X487229Y708788D01*
X484711Y707334D01*
X482656Y705279D01*
X481202Y702761D01*
X480450Y699953D01*
Y699770D01*
X490220D01*
Y709540D01*
D02*
G37*
G36*
X619810Y708524D02*
X617170D01*
X614621Y707841D01*
X612335Y706521D01*
X610469Y704655D01*
X609149Y702369D01*
X608466Y699820D01*
Y697180D01*
X609149Y694631D01*
X610469Y692345D01*
X612335Y690479D01*
X614621Y689159D01*
X617170Y688476D01*
X619810D01*
X622359Y689159D01*
X624645Y690479D01*
X626511Y692345D01*
X627831Y694631D01*
X628514Y697180D01*
Y699820D01*
X627831Y702369D01*
X626511Y704655D01*
X624645Y706521D01*
X622359Y707841D01*
X619810Y708524D01*
D02*
G37*
G36*
X569010D02*
X566370D01*
X563821Y707841D01*
X561535Y706521D01*
X559669Y704655D01*
X558349Y702369D01*
X557666Y699820D01*
Y697180D01*
X558349Y694631D01*
X559669Y692345D01*
X561535Y690479D01*
X563821Y689159D01*
X566370Y688476D01*
X569010D01*
X571559Y689159D01*
X573845Y690479D01*
X575711Y692345D01*
X577031Y694631D01*
X577714Y697180D01*
Y699820D01*
X577031Y702369D01*
X575711Y704655D01*
X573845Y706521D01*
X571559Y707841D01*
X569010Y708524D01*
D02*
G37*
G36*
X518210D02*
X515570D01*
X513021Y707841D01*
X510735Y706521D01*
X508869Y704655D01*
X507549Y702369D01*
X506866Y699820D01*
Y697180D01*
X507549Y694631D01*
X508869Y692345D01*
X510735Y690479D01*
X513021Y689159D01*
X515570Y688476D01*
X518210D01*
X520759Y689159D01*
X523045Y690479D01*
X524911Y692345D01*
X526231Y694631D01*
X526914Y697180D01*
Y699820D01*
X526231Y702369D01*
X524911Y704655D01*
X523045Y706521D01*
X520759Y707841D01*
X518210Y708524D01*
D02*
G37*
G36*
X604130Y697230D02*
X594360D01*
Y687460D01*
X594543D01*
X597351Y688212D01*
X599869Y689666D01*
X601924Y691721D01*
X603378Y694239D01*
X604130Y697047D01*
Y697230D01*
D02*
G37*
G36*
X591820D02*
X582050D01*
Y697047D01*
X582802Y694239D01*
X584256Y691721D01*
X586311Y689666D01*
X588829Y688212D01*
X591637Y687460D01*
X591820D01*
Y697230D01*
D02*
G37*
G36*
X553330D02*
X543560D01*
Y687460D01*
X543743D01*
X546551Y688212D01*
X549069Y689666D01*
X551124Y691721D01*
X552578Y694239D01*
X553330Y697047D01*
Y697230D01*
D02*
G37*
G36*
X541020D02*
X531250D01*
Y697047D01*
X532002Y694239D01*
X533456Y691721D01*
X535511Y689666D01*
X538029Y688212D01*
X540837Y687460D01*
X541020D01*
Y697230D01*
D02*
G37*
G36*
X502530D02*
X492760D01*
Y687460D01*
X492943D01*
X495751Y688212D01*
X498269Y689666D01*
X500324Y691721D01*
X501778Y694239D01*
X502530Y697047D01*
Y697230D01*
D02*
G37*
G36*
X490220D02*
X480450D01*
Y697047D01*
X481202Y694239D01*
X482656Y691721D01*
X484711Y689666D01*
X487229Y688212D01*
X490037Y687460D01*
X490220D01*
Y697230D01*
D02*
G37*
%LPD*%
G36*
X756904Y858852D02*
Y821616D01*
X754997Y819710D01*
X727150D01*
X725170Y821690D01*
Y858520D01*
Y858727D01*
X727065Y860622D01*
X753772D01*
X754453Y861303D01*
X756904Y858852D01*
D02*
G37*
D13*
X621623Y843298D02*
Y858022D01*
Y843298D02*
X636030Y828891D01*
D56*
X670125Y777036D02*
X699974D01*
X703683Y773327D01*
X661437Y786430D02*
X665547Y782320D01*
X701040D01*
X657327Y793217D02*
X662123D01*
X668654Y786686D01*
X701040Y782320D02*
X702509Y780851D01*
X668654Y786686D02*
X705557D01*
X703683Y773327D02*
X710841D01*
X702509Y780851D02*
X710830D01*
D57*
X491490Y698500D02*
D03*
X516890D02*
D03*
X542290D02*
D03*
X567690D02*
D03*
X593090D02*
D03*
X491490Y723900D02*
D03*
X516890D02*
D03*
X542290D02*
D03*
X567690D02*
D03*
X593090D02*
D03*
X618490Y698500D02*
D03*
X901310Y758051D02*
D03*
X390000Y720000D02*
D03*
Y800000D02*
D03*
Y920000D02*
D03*
Y760000D02*
D03*
Y880000D02*
D03*
Y840000D02*
D03*
X1000000Y720000D02*
D03*
Y760000D02*
D03*
Y800000D02*
D03*
Y840000D02*
D03*
Y880000D02*
D03*
Y920000D02*
D03*
D58*
X618490Y723900D02*
D03*
D59*
X926710Y758051D02*
D03*
D60*
X466330Y784860D02*
D03*
X670125Y777036D02*
D03*
X661437Y786430D02*
D03*
X657327Y793217D02*
D03*
X710841Y773327D02*
D03*
X710830Y780851D02*
D03*
X826920Y703580D02*
D03*
X868190D02*
D03*
X909460D02*
D03*
X705557Y786686D02*
D03*
X710041Y695397D02*
D03*
X676420Y692910D02*
D03*
X773290Y693040D02*
D03*
X728251Y823182D02*
D03*
X740951D02*
D03*
X753651D02*
D03*
Y857538D02*
D03*
X740951D02*
D03*
X728251D02*
D03*
X931150Y784860D02*
D03*
X636030Y828891D02*
D03*
X621623Y858022D02*
D03*
X618839Y939392D02*
D03*
X628301D02*
D03*
X821830Y907160D02*
D03*
X915910Y861060D02*
D03*
X552310Y891160D02*
D03*
X458230Y861060D02*
D03*
X674065Y890264D02*
D03*
Y872676D02*
D03*
Y881470D02*
D03*
X641655D02*
D03*
Y872676D02*
D03*
Y890264D02*
D03*
X740410Y911860D02*
D03*
Y924560D02*
D03*
X785620Y917080D02*
D03*
X786130Y867170D02*
D03*
X684397Y881031D02*
D03*
Y871569D02*
D03*
X700691Y890137D02*
D03*
X691229D02*
D03*
X636030Y843280D02*
D03*
X840090Y844550D02*
D03*
Y828040D02*
D03*
X839590Y812166D02*
D03*
X840090Y757360D02*
D03*
X636030Y770890D02*
D03*
X635859Y755612D02*
D03*
Y740372D02*
D03*
Y725132D02*
D03*
X780810Y817360D02*
D03*
X706640Y826530D02*
D03*
X697470Y752360D02*
D03*
X780810D02*
D03*
X756640Y743190D02*
D03*
M02*
