G04*
G04 #@! TF.GenerationSoftware,Altium Limited,Altium Designer,22.3.1 (43)*
G04*
G04 Layer_Color=8421504*
%FSLAX44Y44*%
%MOMM*%
G71*
G04*
G04 #@! TF.SameCoordinates,C52AF181-6C1B-4B2A-911A-4B769AFB4D18*
G04*
G04*
G04 #@! TF.FilePolarity,Positive*
G04*
G01*
G75*
%ADD16R,0.9500X1.0000*%
%ADD17R,0.8000X0.8000*%
%ADD18R,1.5000X1.0000*%
%ADD19O,1.8000X0.3000*%
%ADD20O,0.3000X1.8000*%
%ADD21R,1.1000X1.9000*%
%ADD22R,0.6250X0.4000*%
%ADD23R,1.5500X0.6000*%
%ADD24R,1.8000X1.1500*%
%ADD25R,0.9000X1.0000*%
%ADD26R,1.0000X0.9500*%
%ADD27R,1.0500X1.4000*%
%ADD28R,1.0000X0.9000*%
%ADD29R,1.4000X1.0500*%
%ADD30R,2.1500X2.3000*%
%ADD31R,0.9500X0.9500*%
%ADD32R,0.6500X0.8500*%
D16*
X732790Y693040D02*
D03*
X748790D02*
D03*
X770000Y891540D02*
D03*
X754000D02*
D03*
X644780Y843280D02*
D03*
X660780D02*
D03*
X831340Y828040D02*
D03*
X815340D02*
D03*
X831340Y757360D02*
D03*
X815340D02*
D03*
X644609Y755612D02*
D03*
X660609D02*
D03*
X644609Y725132D02*
D03*
X660609D02*
D03*
X644609Y740372D02*
D03*
X660609D02*
D03*
X831340Y844550D02*
D03*
X815340D02*
D03*
D17*
X852170Y703580D02*
D03*
X835670D02*
D03*
X893440D02*
D03*
X876940D02*
D03*
X934710D02*
D03*
X918210D02*
D03*
D18*
X623570Y908480D02*
D03*
Y930480D02*
D03*
D19*
X683640Y747360D02*
D03*
Y752360D02*
D03*
Y757360D02*
D03*
Y762360D02*
D03*
Y767360D02*
D03*
Y772360D02*
D03*
Y777360D02*
D03*
Y782360D02*
D03*
Y787360D02*
D03*
Y792360D02*
D03*
Y797360D02*
D03*
Y802360D02*
D03*
Y807360D02*
D03*
Y812360D02*
D03*
Y817360D02*
D03*
Y822360D02*
D03*
X794640D02*
D03*
Y817360D02*
D03*
Y812360D02*
D03*
Y807360D02*
D03*
Y802360D02*
D03*
Y797360D02*
D03*
Y792360D02*
D03*
Y787360D02*
D03*
Y782360D02*
D03*
Y777360D02*
D03*
Y772360D02*
D03*
Y767360D02*
D03*
Y762360D02*
D03*
Y757360D02*
D03*
Y752360D02*
D03*
Y747360D02*
D03*
D20*
X701640Y840360D02*
D03*
X706640D02*
D03*
X711640D02*
D03*
X716640D02*
D03*
X721640D02*
D03*
X726640D02*
D03*
X731640D02*
D03*
X736640D02*
D03*
X741640D02*
D03*
X746640D02*
D03*
X751640D02*
D03*
X756640D02*
D03*
X761640D02*
D03*
X766640D02*
D03*
X771640D02*
D03*
X776640D02*
D03*
Y729360D02*
D03*
X771640D02*
D03*
X766640D02*
D03*
X761640D02*
D03*
X756640D02*
D03*
X751640D02*
D03*
X746640D02*
D03*
X741640D02*
D03*
X736640D02*
D03*
X731640D02*
D03*
X726640D02*
D03*
X721640D02*
D03*
X716640D02*
D03*
X711640D02*
D03*
X706640D02*
D03*
X701640D02*
D03*
D21*
X740410Y918210D02*
D03*
D22*
X729285Y927960D02*
D03*
Y921460D02*
D03*
Y914960D02*
D03*
Y908460D02*
D03*
X751535Y927960D02*
D03*
Y921460D02*
D03*
Y914960D02*
D03*
Y908460D02*
D03*
D23*
X903300Y880110D02*
D03*
Y892810D02*
D03*
Y905510D02*
D03*
Y918210D02*
D03*
X849300Y880110D02*
D03*
Y892810D02*
D03*
Y905510D02*
D03*
Y918210D02*
D03*
X470840D02*
D03*
Y905510D02*
D03*
Y892810D02*
D03*
Y880110D02*
D03*
X524840Y918210D02*
D03*
Y905510D02*
D03*
Y892810D02*
D03*
Y880110D02*
D03*
D24*
X927100Y913660D02*
D03*
Y884660D02*
D03*
X447040D02*
D03*
Y913660D02*
D03*
D25*
X860680Y861060D02*
D03*
X876680D02*
D03*
X513460D02*
D03*
X497460D02*
D03*
X457580Y800100D02*
D03*
X441580D02*
D03*
X891160Y861060D02*
D03*
X907160D02*
D03*
X482980D02*
D03*
X466980D02*
D03*
X441580Y784860D02*
D03*
X457580D02*
D03*
X748790Y708660D02*
D03*
X732790D02*
D03*
X644780Y770890D02*
D03*
X660780D02*
D03*
X693040Y934720D02*
D03*
X709040D02*
D03*
X754000Y875030D02*
D03*
X770000D02*
D03*
X769620Y925830D02*
D03*
X785620D02*
D03*
X559560Y923290D02*
D03*
X543560D02*
D03*
X559560Y875030D02*
D03*
X543560D02*
D03*
X814580D02*
D03*
X830580D02*
D03*
X814580Y923290D02*
D03*
X830580D02*
D03*
X906400Y784860D02*
D03*
X922400D02*
D03*
X836170Y720090D02*
D03*
X852170D02*
D03*
X877440D02*
D03*
X893440D02*
D03*
X918710D02*
D03*
X934710D02*
D03*
D26*
X830580Y907160D02*
D03*
Y891160D02*
D03*
X543560D02*
D03*
Y907160D02*
D03*
X685170Y692910D02*
D03*
Y708910D02*
D03*
X764540Y693040D02*
D03*
Y709040D02*
D03*
D27*
X712580Y876300D02*
D03*
X694580D02*
D03*
D28*
X786130Y891920D02*
D03*
Y875920D02*
D03*
X666750Y709040D02*
D03*
Y693040D02*
D03*
D29*
X695960Y918320D02*
D03*
Y900320D02*
D03*
D30*
X657860Y924470D02*
D03*
Y881470D02*
D03*
D31*
X815840Y812166D02*
D03*
X830840D02*
D03*
D32*
X701050Y708660D02*
D03*
X717550D02*
D03*
Y693160D02*
D03*
X701050D02*
D03*
M02*
